<svg id="svg" version="1.1" xmlns="http://www.w3.org/2000/svg" xmlns:xlink="http://www.w3.org/1999/xlink" width="400" height="400" viewBox="0, 0, 400,400"><g id="svgg"><path id="path0" d="M176.400 59.235 C 175.850 59.679,175.040 60.345,174.600 60.714 C 174.160 61.084,173.652 61.339,173.470 61.283 C 173.289 61.226,173.264 61.379,173.414 61.623 C 173.594 61.914,174.049 61.736,174.744 61.101 C 175.325 60.570,176.319 59.745,176.954 59.268 C 177.589 58.791,177.949 58.406,177.754 58.413 C 177.559 58.421,176.950 58.790,176.400 59.235 M198.200 61.262 C 193.154 62.019,191.281 62.435,185.200 64.151 C 178.750 65.972,170.355 69.809,164.509 73.608 C 162.370 74.999,161.211 75.518,160.593 75.363 C 159.786 75.160,158.402 76.022,158.399 76.729 C 158.399 76.878,157.859 77.630,157.200 78.400 C 156.541 79.170,156.001 80.025,156.001 80.300 C 156.000 80.575,155.820 80.800,155.600 80.800 C 155.380 80.800,155.200 81.081,155.200 81.424 C 155.200 81.767,155.020 81.936,154.800 81.800 C 154.580 81.664,154.400 81.923,154.400 82.376 C 154.400 82.829,154.220 83.200,154.000 83.200 C 153.780 83.200,153.600 83.436,153.600 83.725 C 153.600 84.013,153.240 84.636,152.800 85.108 C 152.360 85.580,152.000 86.244,152.000 86.583 C 152.000 86.922,151.820 87.200,151.600 87.200 C 151.380 87.200,151.200 87.560,151.200 88.000 C 151.200 88.440,151.020 88.800,150.800 88.800 C 150.580 88.800,150.400 89.160,150.400 89.600 C 150.400 90.040,150.220 90.400,150.000 90.400 C 149.780 90.400,149.600 90.736,149.600 91.146 C 149.600 91.556,149.240 92.350,148.800 92.909 C 148.360 93.469,148.000 94.202,148.000 94.539 C 148.000 94.877,147.820 95.264,147.600 95.400 C 147.380 95.536,147.200 96.097,147.200 96.647 C 147.200 97.212,147.026 97.540,146.800 97.400 C 146.567 97.256,146.400 97.663,146.400 98.376 C 146.400 99.049,146.220 99.600,146.000 99.600 C 145.780 99.600,145.600 100.140,145.600 100.800 C 145.600 101.460,145.447 102.000,145.261 102.000 C 145.074 102.000,144.905 102.581,144.885 103.292 C 144.865 104.003,144.657 104.648,144.424 104.725 C 144.191 104.803,144.000 105.482,144.000 106.233 C 144.000 106.985,143.806 107.600,143.569 107.600 C 143.332 107.600,143.171 108.185,143.210 108.900 C 143.249 109.615,143.242 110.380,143.193 110.600 C 143.145 110.820,143.127 111.135,143.153 111.300 C 143.179 111.465,143.019 111.600,142.797 111.600 C 142.561 111.600,142.456 112.422,142.542 113.585 C 142.623 114.677,142.537 115.622,142.350 115.685 C 142.164 115.748,141.891 118.192,141.744 121.115 C 141.596 124.038,141.353 126.505,141.203 126.598 C 141.054 126.690,126.817 126.790,109.566 126.820 C 92.315 126.849,78.015 127.026,77.788 127.212 C 77.562 127.399,76.302 127.589,74.988 127.634 C 73.675 127.679,72.420 127.851,72.200 128.015 C 71.980 128.180,70.990 128.418,70.000 128.544 C 65.991 129.057,64.785 129.301,64.574 129.642 C 64.452 129.839,63.838 130.000,63.210 130.000 C 62.581 130.000,62.007 130.169,61.933 130.375 C 61.860 130.582,61.312 130.815,60.715 130.894 C 60.118 130.972,59.503 131.163,59.348 131.318 C 59.193 131.473,58.737 131.600,58.333 131.600 C 57.930 131.600,57.600 131.780,57.600 132.000 C 57.600 132.220,57.060 132.400,56.400 132.400 C 55.740 132.400,55.200 132.580,55.200 132.800 C 55.200 133.020,54.761 133.200,54.224 133.200 C 53.687 133.200,53.136 133.380,53.000 133.600 C 52.864 133.820,52.403 134.000,51.976 134.000 C 51.549 134.000,51.199 134.135,51.197 134.300 C 51.193 134.659,49.256 135.600,48.520 135.600 C 48.234 135.600,48.000 135.780,48.000 136.000 C 48.000 136.220,47.629 136.400,47.176 136.400 C 46.723 136.400,46.464 136.580,46.600 136.800 C 46.740 137.027,46.404 137.200,45.824 137.200 C 45.261 137.200,44.800 137.380,44.800 137.600 C 44.800 137.820,44.519 138.000,44.176 138.000 C 43.833 138.000,43.664 138.180,43.800 138.400 C 43.936 138.620,43.711 138.800,43.299 138.800 C 42.888 138.800,42.164 139.160,41.692 139.600 C 41.220 140.040,40.556 140.400,40.217 140.400 C 39.878 140.400,39.600 140.567,39.600 140.771 C 39.600 140.975,38.880 141.460,38.000 141.848 C 37.120 142.236,36.400 142.677,36.400 142.828 C 36.400 142.979,35.862 143.326,35.205 143.598 C 34.548 143.870,34.109 144.252,34.229 144.446 C 34.349 144.641,34.167 144.800,33.824 144.800 C 33.481 144.800,33.200 145.100,33.200 145.467 C 33.200 145.833,33.088 146.021,32.950 145.884 C 32.813 145.746,32.349 146.031,31.920 146.517 C 31.490 147.003,31.262 147.162,31.411 146.870 C 31.635 146.436,31.538 146.432,30.868 146.851 C 30.419 147.131,30.141 147.504,30.249 147.680 C 30.358 147.856,30.251 148.000,30.010 148.000 C 29.415 148.000,26.793 150.660,27.093 150.960 C 27.225 151.092,27.073 151.200,26.755 151.200 C 26.437 151.200,25.912 151.588,25.588 152.062 C 25.265 152.535,23.908 154.029,22.574 155.380 C 21.240 156.731,20.030 158.144,19.887 158.519 C 19.743 158.893,19.349 159.200,19.013 159.200 C 18.676 159.200,18.400 159.382,18.400 159.604 C 18.400 159.826,17.860 160.572,17.200 161.263 C 16.540 161.954,16.000 162.863,16.000 163.283 C 16.000 163.703,15.820 163.936,15.600 163.800 C 15.380 163.664,15.200 163.844,15.200 164.200 C 15.200 164.587,15.015 164.733,14.738 164.562 C 14.470 164.396,14.384 164.451,14.534 164.693 C 14.675 164.922,14.523 165.332,14.196 165.604 C 13.868 165.876,13.600 166.357,13.600 166.673 C 13.600 166.989,13.420 167.136,13.200 167.000 C 12.980 166.864,12.800 167.041,12.800 167.393 C 12.800 167.745,12.440 168.420,12.000 168.892 C 11.560 169.364,11.200 169.987,11.200 170.275 C 11.200 170.564,11.020 170.800,10.800 170.800 C 10.580 170.800,10.400 171.160,10.400 171.600 C 10.400 172.040,10.241 172.400,10.047 172.400 C 9.852 172.400,9.562 172.805,9.400 173.300 C 9.239 173.795,9.059 174.290,9.000 174.400 C 8.941 174.510,8.761 175.005,8.600 175.500 C 8.438 175.995,8.148 176.400,7.953 176.400 C 7.759 176.400,7.600 176.951,7.600 177.624 C 7.600 178.337,7.433 178.744,7.200 178.600 C 6.972 178.459,6.800 178.804,6.800 179.400 C 6.800 179.996,6.628 180.341,6.400 180.200 C 6.180 180.064,6.000 180.313,6.000 180.753 C 6.000 181.193,5.820 181.664,5.600 181.800 C 5.380 181.936,5.200 182.487,5.200 183.024 C 5.200 183.561,5.020 184.000,4.800 184.000 C 4.580 184.000,4.400 184.540,4.400 185.200 C 4.400 185.860,4.220 186.400,4.000 186.400 C 3.780 186.400,3.600 187.041,3.600 187.824 C 3.600 188.607,3.458 189.160,3.285 189.052 C 3.112 188.945,2.930 189.340,2.881 189.929 C 2.833 190.518,2.615 191.060,2.397 191.133 C 2.178 191.207,2.000 191.972,2.000 192.833 C 2.000 193.695,1.820 194.400,1.600 194.400 C 1.380 194.400,1.200 195.210,1.200 196.200 C 1.200 197.370,1.025 198.002,0.700 198.006 C 0.334 198.011,0.346 198.105,0.745 198.358 C 1.206 198.649,1.206 198.731,0.745 198.885 C -0.142 199.180,-0.029 231.687,0.860 232.237 C 1.047 232.353,1.200 233.167,1.200 234.047 C 1.200 235.012,1.359 235.549,1.600 235.400 C 1.845 235.249,2.000 235.870,2.000 237.000 C 2.000 238.130,2.155 238.751,2.400 238.600 C 2.642 238.451,2.800 238.996,2.800 239.976 C 2.800 240.869,2.980 241.600,3.200 241.600 C 3.420 241.600,3.600 242.140,3.600 242.800 C 3.600 243.460,3.780 244.000,4.000 244.000 C 4.220 244.000,4.400 244.540,4.400 245.200 C 4.400 245.860,4.535 246.401,4.700 246.403 C 5.110 246.407,6.000 248.389,6.000 249.296 C 6.000 249.702,6.360 250.420,6.800 250.892 C 7.240 251.364,7.600 252.178,7.600 252.699 C 7.600 253.221,7.760 253.549,7.955 253.428 C 8.297 253.216,8.947 254.642,8.828 255.345 C 8.796 255.535,9.059 255.902,9.413 256.160 C 9.767 256.419,10.011 256.804,9.956 257.015 C 9.819 257.542,11.270 260.400,11.674 260.400 C 11.853 260.400,12.000 260.771,12.000 261.224 C 12.000 261.677,12.167 261.944,12.372 261.817 C 12.576 261.691,12.969 262.211,13.245 262.972 C 13.520 263.734,13.893 264.266,14.073 264.155 C 14.253 264.044,14.400 264.211,14.400 264.527 C 14.400 264.843,14.674 265.330,15.010 265.608 C 15.345 265.886,15.528 266.205,15.417 266.316 C 15.306 266.428,15.616 266.867,16.107 267.293 C 16.598 267.719,17.000 268.239,17.000 268.448 C 17.000 268.658,17.270 269.000,17.600 269.208 C 17.930 269.417,18.068 269.591,17.907 269.594 C 17.279 269.607,21.103 273.200,21.745 273.200 C 22.120 273.200,23.302 272.756,24.373 272.214 C 32.057 268.320,34.466 267.955,54.019 267.715 L 70.637 267.511 71.127 263.456 C 71.920 256.893,73.208 253.128,77.237 245.600 C 77.767 244.610,78.291 243.710,78.402 243.600 C 78.514 243.490,79.077 242.770,79.654 242.000 C 84.619 235.376,97.602 227.200,103.153 227.200 C 103.648 227.200,104.410 227.009,104.847 226.775 C 105.933 226.194,118.234 226.215,120.453 226.802 C 121.414 227.056,122.920 227.447,123.800 227.671 C 124.680 227.895,125.713 228.240,126.095 228.439 C 126.477 228.638,126.983 228.800,127.220 228.800 C 128.534 228.800,134.614 232.203,138.400 235.059 C 146.970 241.523,153.982 254.475,153.996 263.867 C 154.002 267.613,153.989 267.600,157.680 267.600 C 164.357 267.600,173.648 270.288,178.672 273.673 C 179.592 274.293,180.460 274.800,180.601 274.800 C 180.742 274.800,181.094 275.025,181.384 275.300 C 182.487 276.346,183.621 277.200,183.908 277.200 C 186.531 277.200,196.346 291.596,198.362 298.400 C 198.590 299.170,199.022 300.610,199.322 301.600 L 199.867 303.400 258.797 303.496 C 294.882 303.555,317.902 303.447,318.178 303.219 C 318.425 303.013,320.201 302.810,322.124 302.768 C 324.047 302.725,325.716 302.535,325.834 302.345 C 325.951 302.155,326.926 302.000,328.000 302.000 C 329.074 302.000,330.064 301.820,330.200 301.600 C 330.336 301.380,331.247 301.200,332.224 301.200 C 333.201 301.200,334.000 301.040,334.000 300.844 C 334.000 300.648,334.630 300.378,335.400 300.244 C 336.170 300.110,337.430 299.890,338.200 299.756 C 338.970 299.622,339.600 299.352,339.600 299.156 C 339.600 298.960,340.050 298.800,340.600 298.800 C 341.150 298.800,341.600 298.620,341.600 298.400 C 341.600 298.180,342.140 298.000,342.800 298.000 C 343.460 298.000,344.000 297.820,344.000 297.600 C 344.000 297.380,344.366 297.200,344.814 297.200 C 345.262 297.200,346.072 296.909,346.614 296.554 C 347.156 296.199,347.603 296.064,347.606 296.254 C 347.609 296.444,347.744 296.420,347.906 296.200 C 348.338 295.612,349.897 294.800,350.595 294.800 C 350.928 294.800,351.200 294.620,351.200 294.400 C 351.200 294.180,351.560 294.000,352.000 294.000 C 352.440 294.000,352.800 293.820,352.800 293.600 C 352.800 293.380,353.160 293.200,353.600 293.200 C 354.040 293.200,354.400 293.020,354.400 292.800 C 354.400 292.580,354.760 292.400,355.200 292.400 C 355.640 292.400,356.000 292.220,356.000 292.000 C 356.000 291.780,356.281 291.600,356.624 291.600 C 356.967 291.600,357.129 291.408,356.983 291.173 C 356.838 290.939,356.963 290.778,357.260 290.817 C 358.022 290.916,359.600 290.366,359.600 290.002 C 359.600 289.834,360.140 289.473,360.800 289.200 C 361.460 288.927,362.000 288.545,362.000 288.351 C 362.000 288.158,362.261 288.000,362.580 288.000 C 362.899 288.000,363.344 287.685,363.568 287.300 C 363.792 286.915,363.981 286.775,363.988 286.989 C 363.995 287.203,364.263 287.003,364.584 286.544 C 364.905 286.085,365.715 285.484,366.384 285.207 C 367.498 284.745,367.759 284.290,367.707 282.900 C 367.697 282.625,367.849 282.400,368.044 282.400 C 368.240 282.400,368.355 282.265,368.301 282.100 C 368.246 281.935,368.586 281.170,369.057 280.400 C 369.528 279.630,370.522 278.010,371.266 276.800 C 388.396 248.939,388.216 213.160,370.801 184.800 C 361.889 170.287,342.289 153.766,329.400 149.904 C 328.960 149.773,326.800 149.045,324.600 148.287 C 315.756 145.241,306.771 143.600,298.938 143.600 C 293.078 143.600,291.754 142.055,291.639 135.077 C 291.617 133.800,291.415 131.910,291.189 130.877 C 290.962 129.845,290.594 128.100,290.369 127.000 C 289.406 122.282,287.658 116.431,286.067 112.600 C 283.359 106.083,277.273 95.540,274.521 92.600 C 274.109 92.160,273.483 91.384,273.130 90.874 C 270.798 87.510,256.800 74.800,255.426 74.800 C 255.333 74.800,254.209 74.104,252.928 73.254 C 247.753 69.816,239.268 65.980,232.800 64.152 C 227.199 62.570,226.713 62.453,223.800 61.993 C 222.260 61.750,220.131 61.382,219.069 61.176 C 216.677 60.710,201.463 60.773,198.200 61.262 M165.170 69.055 C 164.636 69.635,164.455 70.030,164.766 69.933 C 165.293 69.768,166.713 68.000,166.319 68.000 C 166.220 68.000,165.703 68.475,165.170 69.055 M163.023 71.289 C 162.680 71.778,162.400 72.024,162.400 71.835 C 162.400 71.646,162.040 71.950,161.600 72.509 C 160.758 73.580,160.496 75.035,161.227 74.583 C 161.462 74.438,161.558 74.067,161.440 73.760 C 161.314 73.431,161.477 73.200,161.836 73.200 C 162.172 73.200,162.336 73.020,162.200 72.800 C 162.064 72.580,162.135 72.400,162.358 72.400 C 162.581 72.400,163.214 71.950,163.764 71.400 C 164.410 70.754,164.566 70.400,164.204 70.400 C 163.897 70.400,163.365 70.800,163.023 71.289 M288.255 72.710 C 288.150 72.881,288.499 73.440,289.032 73.952 C 289.564 74.465,290.000 74.695,290.000 74.465 C 290.000 74.234,289.641 73.794,289.203 73.487 C 288.764 73.180,288.524 72.809,288.669 72.664 C 288.814 72.519,288.824 72.400,288.690 72.400 C 288.557 72.400,288.361 72.540,288.255 72.710 M309.907 127.090 C 310.626 127.179,311.706 127.177,312.307 127.086 C 312.908 126.995,312.320 126.922,311.000 126.924 C 309.680 126.926,309.188 127.001,309.907 127.090 M212.800 168.047 C 215.911 168.744,217.776 169.265,218.495 169.639 C 218.877 169.838,219.383 170.000,219.620 170.000 C 220.795 170.000,228.100 174.020,229.400 175.381 C 232.265 178.383,231.219 183.651,227.374 185.583 C 224.624 186.965,223.980 186.821,217.840 183.461 C 216.938 182.967,215.390 182.329,214.400 182.043 C 213.410 181.756,212.259 181.342,211.842 181.121 C 210.729 180.533,200.043 180.601,198.161 181.208 C 193.910 182.578,190.265 184.421,187.511 186.591 C 185.075 188.510,180.800 193.407,180.800 194.278 C 180.800 194.565,180.665 194.801,180.500 194.803 C 180.141 194.807,179.200 196.744,179.200 197.480 C 179.200 197.766,179.020 198.000,178.800 198.000 C 178.580 198.000,178.400 198.439,178.400 198.976 C 178.400 199.513,178.240 200.052,178.044 200.173 C 177.401 200.570,177.093 203.317,177.076 208.800 C 177.059 213.995,177.230 215.553,178.030 217.500 C 178.234 217.995,178.580 218.850,178.800 219.400 C 179.451 221.027,180.184 222.586,180.400 222.800 C 180.511 222.910,180.865 223.511,181.187 224.136 C 182.896 227.447,188.315 232.169,192.800 234.255 C 195.241 235.390,196.119 235.686,200.246 236.768 C 206.891 238.510,215.241 236.109,220.967 230.810 C 225.499 226.616,228.561 226.241,231.802 229.482 C 235.213 232.893,233.437 238.352,227.600 242.402 C 226.830 242.937,225.965 243.602,225.677 243.881 C 224.964 244.573,220.450 247.200,219.973 247.200 C 219.762 247.200,219.277 247.359,218.895 247.553 C 210.872 251.635,197.607 251.163,188.062 246.457 C 187.106 245.986,186.071 245.600,185.762 245.600 C 185.453 245.600,185.200 245.420,185.200 245.200 C 185.200 244.980,184.930 244.800,184.600 244.800 C 184.270 244.800,184.000 244.664,184.000 244.498 C 184.000 244.331,183.494 243.971,182.875 243.697 C 182.256 243.424,181.401 242.885,180.975 242.500 C 180.548 242.115,179.569 241.322,178.800 240.738 C 164.162 229.627,159.409 207.191,168.093 190.200 C 170.845 184.816,177.018 177.565,180.700 175.394 C 181.415 174.972,182.000 174.486,182.000 174.314 C 182.000 174.141,182.193 174.000,182.428 174.000 C 182.663 174.000,183.641 173.460,184.600 172.800 C 185.559 172.140,186.627 171.600,186.972 171.600 C 187.317 171.600,187.600 171.420,187.600 171.200 C 187.600 170.980,187.872 170.800,188.205 170.800 C 188.538 170.800,189.123 170.641,189.505 170.447 C 194.872 167.717,206.142 166.556,212.800 168.047 M289.000 168.285 C 290.320 168.608,291.897 168.968,292.505 169.083 C 293.113 169.198,293.708 169.451,293.829 169.646 C 293.949 169.841,294.372 170.000,294.768 170.000 C 296.108 170.000,302.547 173.598,306.191 176.382 C 313.568 182.019,320.003 192.904,321.217 201.800 C 322.069 208.039,322.092 209.473,321.416 214.149 C 319.788 225.403,313.647 236.067,305.600 241.613 C 304.830 242.144,303.851 242.898,303.425 243.289 C 302.998 243.680,302.428 244.000,302.158 244.000 C 301.888 244.000,301.607 244.136,301.533 244.302 C 301.407 244.587,296.728 246.949,295.000 247.599 C 294.560 247.765,293.697 248.103,293.081 248.350 C 292.466 248.598,291.531 248.800,291.005 248.800 C 290.478 248.800,289.952 248.953,289.836 249.141 C 289.526 249.644,284.743 250.160,280.400 250.160 C 276.057 250.160,271.274 249.644,270.964 249.141 C 270.848 248.953,270.234 248.800,269.600 248.800 C 268.966 248.800,268.336 248.620,268.200 248.400 C 268.064 248.180,267.601 248.000,267.171 248.000 C 266.741 248.000,266.077 247.840,265.695 247.644 C 265.313 247.448,264.100 246.870,263.000 246.359 C 261.900 245.849,260.248 244.929,259.328 244.316 C 258.408 243.702,257.463 243.200,257.228 243.200 C 256.993 243.200,256.800 243.059,256.800 242.886 C 256.800 242.714,256.220 242.230,255.511 241.811 C 253.370 240.546,246.000 232.785,246.000 231.796 C 246.000 231.657,245.460 230.759,244.800 229.800 C 244.140 228.841,243.600 227.773,243.600 227.428 C 243.600 227.083,243.420 226.800,243.200 226.800 C 242.980 226.800,242.800 226.440,242.800 226.000 C 242.800 225.560,242.653 225.200,242.472 225.200 C 242.292 225.200,241.896 224.289,241.593 223.175 C 241.290 222.061,240.897 221.060,240.721 220.951 C 240.544 220.842,240.400 220.144,240.400 219.400 C 240.400 218.656,240.242 217.949,240.049 217.830 C 239.132 217.264,238.768 206.832,239.510 202.400 C 240.265 197.891,240.551 196.859,241.647 194.705 C 241.841 194.323,242.000 193.757,242.000 193.446 C 242.000 193.135,242.566 191.828,243.259 190.541 C 243.951 189.253,244.716 187.796,244.959 187.303 C 245.201 186.810,245.535 186.405,245.700 186.403 C 245.865 186.401,246.000 186.222,246.000 186.004 C 246.000 184.908,251.265 179.040,254.635 176.382 C 256.357 175.023,259.167 173.200,259.539 173.200 C 259.756 173.200,259.993 173.064,260.067 172.898 C 260.335 172.292,265.749 169.844,268.400 169.131 C 269.170 168.924,270.430 168.574,271.200 168.353 C 275.134 167.223,284.524 167.187,289.000 168.285 M277.000 180.837 C 272.084 181.330,270.414 181.891,265.567 184.676 C 255.173 190.650,249.675 204.721,253.133 216.503 C 254.029 219.558,255.513 222.872,256.100 223.133 C 256.265 223.207,256.402 223.477,256.405 223.733 C 256.429 225.832,263.984 232.484,268.800 234.647 C 275.416 237.619,281.252 237.932,289.056 235.732 C 300.172 232.600,308.508 221.347,308.860 209.000 C 309.154 198.664,302.219 187.675,292.600 183.235 C 291.500 182.728,290.287 182.152,289.905 181.956 C 289.523 181.760,288.794 181.600,288.285 181.600 C 287.776 181.600,287.189 181.443,286.980 181.251 C 286.442 180.757,280.326 180.503,277.000 180.837 M349.400 195.705 C 352.782 196.706,356.164 199.269,358.234 202.400 C 361.579 207.458,362.105 212.058,359.995 217.800 C 359.398 219.427,357.790 222.604,357.500 222.733 C 357.335 222.807,357.200 223.044,357.200 223.261 C 357.200 223.605,355.241 226.671,354.300 227.800 C 353.286 229.016,348.006 236.647,348.003 236.900 C 348.001 237.065,350.166 237.200,352.813 237.200 C 358.388 237.200,359.674 237.590,361.530 239.841 C 363.919 242.740,363.130 247.070,359.863 248.984 L 358.130 250.000 346.291 250.000 C 332.252 250.000,331.068 249.696,329.367 245.651 C 328.052 242.524,330.715 237.514,339.016 227.495 C 339.337 227.108,339.600 226.704,339.600 226.599 C 339.600 226.418,341.777 223.429,343.026 221.895 C 343.342 221.508,343.600 221.104,343.600 220.999 C 343.600 220.893,344.233 219.978,345.006 218.965 C 349.696 212.821,349.335 207.829,344.200 207.829 C 341.904 207.829,340.002 209.222,340.000 210.905 C 339.999 213.319,336.802 216.000,333.926 216.000 C 329.639 216.000,326.443 212.106,327.588 208.279 C 329.586 201.608,332.629 198.329,339.400 195.550 C 341.301 194.770,346.513 194.851,349.400 195.705 M383.704 266.594 C 383.431 266.904,383.350 267.246,383.524 267.353 C 383.698 267.460,384.057 267.200,384.323 266.774 C 384.880 265.883,384.442 265.756,383.704 266.594 M382.122 268.974 C 381.860 269.274,381.410 269.602,381.122 269.704 C 380.819 269.813,380.748 270.039,380.955 270.245 C 381.161 270.452,381.385 270.390,381.489 270.098 C 381.588 269.821,381.797 269.674,381.954 269.772 C 382.111 269.869,382.457 269.600,382.723 269.174 C 383.273 268.294,382.845 268.152,382.122 268.974 M379.529 271.557 C 379.173 271.974,378.760 272.696,378.612 273.163 C 378.464 273.630,378.175 273.908,377.971 273.782 C 377.767 273.656,377.600 273.844,377.600 274.200 C 377.600 274.587,377.415 274.733,377.138 274.562 C 376.859 274.389,376.785 274.452,376.951 274.721 C 377.254 275.211,378.400 274.924,378.400 274.357 C 378.400 274.161,378.715 273.670,379.100 273.266 C 380.048 272.272,380.879 270.800,380.492 270.800 C 380.319 270.800,379.886 271.141,379.529 271.557 M375.660 275.842 C 374.931 276.666,375.400 277.057,376.181 276.276 C 376.521 275.936,376.800 275.554,376.800 275.429 C 376.800 275.009,376.206 275.224,375.660 275.842 M373.119 278.803 C 372.285 280.267,372.452 280.312,373.782 278.982 C 374.929 277.835,375.018 277.599,374.300 277.603 C 374.025 277.604,373.493 278.144,373.119 278.803 M371.372 280.128 C 371.048 280.973,371.251 281.263,371.890 280.868 C 372.188 280.684,372.228 280.368,372.000 280.001 C 371.700 279.515,371.600 279.535,371.372 280.128 " stroke="none" fill="#f2f1f2" fill-rule="evenodd"></path><path id="path1" d="M199.000 168.484 C 171.851 173.565,156.989 200.776,167.915 225.400 C 168.862 227.536,171.057 231.466,171.601 232.000 C 171.713 232.110,172.332 232.920,172.978 233.800 C 182.895 247.327,204.657 253.453,219.096 246.783 C 220.028 246.352,220.891 246.000,221.014 246.000 C 221.458 246.000,227.338 241.874,228.883 240.478 C 233.457 236.345,234.115 231.810,230.506 229.291 C 227.660 227.304,225.163 227.879,221.499 231.367 C 218.878 233.861,215.197 235.997,211.475 237.184 C 209.607 237.779,200.486 237.809,198.690 237.225 C 197.980 236.995,196.500 236.524,195.400 236.179 C 190.158 234.535,180.400 226.723,180.400 224.170 C 180.400 224.035,180.071 223.446,179.668 222.862 C 178.916 221.771,177.712 218.777,176.747 215.600 C 176.016 213.195,176.017 204.402,176.748 202.000 C 178.050 197.724,180.263 192.800,180.884 192.800 C 181.058 192.800,181.200 192.546,181.200 192.236 C 181.200 191.511,186.272 186.402,188.540 184.841 C 194.567 180.695,203.852 178.614,209.894 180.055 C 213.912 181.013,216.828 182.039,218.875 183.216 C 224.498 186.449,227.483 186.270,229.656 182.568 C 234.206 174.816,214.223 165.636,199.000 168.484 M274.200 168.484 C 268.434 169.564,264.753 170.937,259.000 174.154 C 253.786 177.071,246.819 184.755,243.907 190.800 C 242.160 194.428,241.954 195.027,240.595 200.400 C 239.800 203.549,239.669 213.695,240.389 216.412 C 240.650 217.395,241.050 218.920,241.279 219.800 C 243.384 227.914,249.217 236.355,256.400 241.682 C 258.935 243.562,264.973 246.766,266.020 246.787 C 266.361 246.794,266.811 246.961,267.020 247.157 C 269.036 249.054,283.170 249.997,288.937 248.619 C 311.098 243.325,324.179 223.539,320.355 201.093 C 316.808 180.271,294.696 164.649,274.200 168.484 M285.094 180.041 C 290.946 181.393,294.815 183.096,298.200 185.810 C 300.659 187.781,304.800 192.364,304.800 193.114 C 304.800 193.345,304.942 193.593,305.115 193.667 C 306.735 194.353,309.600 204.021,309.600 208.800 C 309.600 214.230,306.773 222.868,304.126 225.529 C 303.837 225.819,303.600 226.193,303.600 226.360 C 303.600 228.292,294.364 234.818,289.400 236.394 C 288.520 236.674,287.369 237.067,286.842 237.269 C 285.434 237.808,275.445 237.730,273.689 237.166 C 255.479 231.318,246.849 214.390,253.556 197.674 C 257.730 187.272,268.677 179.837,280.094 179.651 C 281.796 179.623,284.046 179.798,285.094 180.041 " stroke="none" fill="#9b939b" fill-rule="evenodd"></path><path id="path2" d="M204.307 167.890 C 205.026 167.979,206.106 167.977,206.707 167.886 C 207.308 167.795,206.720 167.722,205.400 167.724 C 204.080 167.726,203.588 167.801,204.307 167.890 M279.300 167.887 C 279.905 167.978,280.895 167.978,281.500 167.887 C 282.105 167.795,281.610 167.720,280.400 167.720 C 279.190 167.720,278.695 167.795,279.300 167.887 M251.381 179.700 L 249.800 181.400 251.500 179.819 C 253.081 178.348,253.384 178.000,253.081 178.000 C 253.016 178.000,252.251 178.765,251.381 179.700 M183.978 189.100 L 182.600 190.600 184.100 189.222 C 184.925 188.463,185.600 187.788,185.600 187.722 C 185.600 187.416,185.262 187.704,183.978 189.100 M239.293 207.200 C 239.293 207.970,239.375 208.285,239.476 207.900 C 239.576 207.515,239.576 206.885,239.476 206.500 C 239.375 206.115,239.293 206.430,239.293 207.200 M321.320 208.800 C 321.320 210.010,321.395 210.505,321.487 209.900 C 321.578 209.295,321.578 208.305,321.487 207.700 C 321.395 207.095,321.320 207.590,321.320 208.800 M239.293 210.400 C 239.293 211.170,239.375 211.485,239.476 211.100 C 239.576 210.715,239.576 210.085,239.476 209.700 C 239.375 209.315,239.293 209.630,239.293 210.400 M110.691 226.689 C 111.401 226.777,112.661 226.779,113.491 226.692 C 114.321 226.605,113.740 226.533,112.200 226.531 C 110.660 226.529,109.981 226.600,110.691 226.689 M119.700 227.476 C 120.085 227.576,120.715 227.576,121.100 227.476 C 121.485 227.375,121.170 227.293,120.400 227.293 C 119.630 227.293,119.315 227.375,119.700 227.476 M221.385 230.900 L 219.400 233.000 221.500 231.015 C 222.655 229.923,223.600 228.978,223.600 228.915 C 223.600 228.617,223.229 228.949,221.385 230.900 M138.000 235.325 C 138.000 235.394,138.585 235.979,139.300 236.625 L 140.600 237.800 139.425 236.500 C 138.330 235.288,138.000 235.016,138.000 235.325 M82.985 238.900 L 81.000 241.000 83.100 239.015 C 84.255 237.923,85.200 236.978,85.200 236.915 C 85.200 236.617,84.829 236.949,82.985 238.900 M308.175 238.900 L 307.000 240.200 308.300 239.025 C 309.015 238.379,309.600 237.794,309.600 237.725 C 309.600 237.416,309.270 237.688,308.175 238.900 M142.800 240.125 C 142.800 240.194,143.385 240.779,144.100 241.425 L 145.400 242.600 144.225 241.300 C 143.130 240.088,142.800 239.816,142.800 240.125 M94.000 240.633 C 89.840 241.114,84.952 242.548,81.020 244.441 C 79.270 245.283,78.560 245.459,78.341 245.105 C 78.134 244.770,77.961 244.863,77.775 245.411 C 77.146 247.260,76.585 248.400,76.302 248.400 C 76.136 248.400,76.000 248.760,76.000 249.200 C 76.000 249.640,75.820 250.000,75.600 250.000 C 75.380 250.000,75.200 250.272,75.200 250.605 C 75.200 250.938,75.020 251.568,74.800 252.005 C 74.580 252.442,74.220 253.158,74.000 253.595 C 73.780 254.032,73.600 254.741,73.600 255.171 C 73.600 255.601,73.440 256.052,73.244 256.173 C 72.835 256.426,72.544 257.962,71.963 262.940 C 71.735 264.888,71.390 266.899,71.196 267.410 L 70.843 268.340 53.521 268.512 C 37.296 268.672,36.019 268.737,33.332 269.535 C 29.602 270.643,25.900 272.007,25.420 272.449 C 25.211 272.642,24.716 272.800,24.320 272.800 C 23.924 272.800,23.600 273.000,23.600 273.244 C 23.600 273.515,23.057 273.624,22.200 273.524 C 21.430 273.434,20.800 273.483,20.800 273.632 C 20.800 273.781,20.260 274.127,19.600 274.400 C 18.940 274.673,18.400 275.055,18.400 275.249 C 18.400 275.442,18.128 275.600,17.795 275.600 C 17.075 275.600,8.400 284.018,8.400 284.717 C 8.400 284.983,8.220 285.200,8.000 285.200 C 7.780 285.200,7.600 285.470,7.600 285.800 C 7.600 286.130,7.420 286.400,7.200 286.400 C 6.980 286.400,6.800 286.681,6.800 287.024 C 6.800 287.393,6.612 287.531,6.338 287.362 C 6.064 287.193,5.985 287.251,6.142 287.506 C 6.288 287.742,6.136 288.207,5.804 288.539 C 5.472 288.871,5.200 289.426,5.200 289.771 C 5.200 290.117,5.020 290.400,4.800 290.400 C 4.580 290.400,4.400 290.760,4.400 291.200 C 4.400 291.640,4.220 292.000,4.000 292.000 C 3.780 292.000,3.600 292.360,3.600 292.800 C 3.600 293.240,3.420 293.600,3.200 293.600 C 2.980 293.600,2.800 294.061,2.800 294.624 C 2.800 295.204,2.627 295.540,2.400 295.400 C 2.167 295.256,2.000 295.655,2.000 296.353 C 2.000 297.013,1.820 297.664,1.600 297.800 C 1.380 297.936,1.200 298.451,1.200 298.944 C 1.200 299.437,0.975 300.065,0.700 300.340 C -0.023 301.063,-0.023 322.459,0.700 322.700 C 0.987 322.795,1.200 323.536,1.200 324.433 C 1.200 325.295,1.380 326.000,1.600 326.000 C 1.820 326.000,2.000 326.272,2.000 326.605 C 2.000 326.938,2.180 327.568,2.400 328.005 C 2.620 328.442,2.980 329.158,3.200 329.595 C 3.420 330.032,3.600 330.662,3.600 330.995 C 3.600 331.328,3.780 331.600,4.000 331.600 C 4.220 331.600,4.400 331.836,4.400 332.125 C 4.400 332.413,4.715 333.007,5.100 333.445 C 6.100 334.582,6.800 335.888,6.800 336.618 C 6.800 336.964,6.980 337.136,7.200 337.000 C 7.420 336.864,7.600 337.033,7.600 337.376 C 7.600 337.719,7.780 338.000,8.000 338.000 C 8.220 338.000,8.400 338.188,8.400 338.418 C 8.400 338.648,8.805 339.252,9.300 339.759 C 9.795 340.267,11.236 341.788,12.502 343.141 C 13.768 344.493,14.938 345.600,15.102 345.600 C 15.266 345.601,15.880 346.006,16.466 346.500 C 17.053 346.995,17.910 347.715,18.371 348.100 C 18.832 348.485,19.387 348.800,19.605 348.800 C 19.822 348.800,20.000 348.946,20.000 349.125 C 20.000 349.304,20.622 349.695,21.382 349.993 C 22.142 350.291,22.690 350.655,22.599 350.801 C 22.509 350.947,22.652 351.070,22.918 351.075 C 23.183 351.079,24.300 351.487,25.400 351.981 C 28.246 353.260,29.220 353.641,30.493 353.975 C 30.654 354.017,31.374 354.240,32.093 354.470 C 35.842 355.669,38.687 355.728,99.717 355.867 C 147.524 355.977,162.240 355.898,162.917 355.532 C 163.403 355.269,164.457 355.099,165.259 355.154 C 166.062 355.210,166.838 355.063,166.983 354.828 C 167.128 354.592,167.676 354.400,168.200 354.400 C 168.724 354.400,169.264 354.220,169.400 354.000 C 169.536 353.780,170.177 353.600,170.824 353.600 C 171.471 353.600,172.000 353.420,172.000 353.200 C 172.000 352.980,172.450 352.800,173.000 352.800 C 173.550 352.800,174.000 352.620,174.000 352.400 C 174.000 352.180,174.371 352.000,174.824 352.000 C 175.277 352.000,175.536 351.820,175.400 351.600 C 175.264 351.380,175.435 351.200,175.781 351.200 C 177.056 351.200,179.978 349.416,179.989 348.630 C 179.995 348.206,180.622 346.586,181.383 345.030 C 186.413 334.736,187.514 320.845,184.016 311.800 C 180.645 303.081,175.703 295.866,170.152 291.557 C 166.173 288.468,161.483 285.869,156.600 284.046 C 154.325 283.197,148.195 282.017,146.000 282.006 C 140.862 281.981,140.376 281.508,139.625 275.800 C 138.149 264.580,132.114 254.695,122.600 247.913 C 118.257 244.818,115.212 243.468,107.326 241.143 C 105.951 240.737,96.292 240.368,94.000 240.633 M276.900 249.876 C 277.285 249.976,277.915 249.976,278.300 249.876 C 278.685 249.775,278.370 249.693,277.600 249.693 C 276.830 249.693,276.515 249.775,276.900 249.876 M153.720 265.600 C 153.720 266.810,153.795 267.305,153.887 266.700 C 153.978 266.095,153.978 265.105,153.887 264.500 C 153.795 263.895,153.720 264.390,153.720 265.600 M158.433 268.144 C 158.525 268.224,159.680 268.389,161.000 268.512 C 162.491 268.651,163.021 268.611,162.400 268.407 C 161.412 268.084,158.111 267.865,158.433 268.144 M182.833 277.300 C 182.925 277.355,183.540 277.850,184.200 278.400 L 185.400 279.400 184.430 278.300 C 183.897 277.695,183.282 277.200,183.064 277.200 C 182.845 277.200,182.742 277.245,182.833 277.300 M185.633 279.700 C 185.725 279.755,186.340 280.250,187.000 280.800 L 188.200 281.800 187.230 280.700 C 186.697 280.095,186.082 279.600,185.864 279.600 C 185.645 279.600,185.542 279.645,185.633 279.700 M188.000 282.125 C 188.000 282.194,188.585 282.779,189.300 283.425 L 190.600 284.600 189.425 283.300 C 188.330 282.088,188.000 281.816,188.000 282.125 " stroke="none" fill="#cbc3cb" fill-rule="evenodd"></path><path id="path3" d="M341.274 195.652 C 330.990 197.341,323.855 210.509,330.896 214.802 C 334.170 216.798,338.099 215.116,339.415 211.154 C 341.037 206.271,346.747 205.704,348.641 210.237 C 349.815 213.047,347.864 216.329,333.800 235.200 C 328.965 241.689,328.471 243.399,330.482 246.710 C 332.017 249.237,332.680 249.376,343.995 249.532 C 360.058 249.754,362.400 249.047,362.400 243.980 C 362.400 239.085,359.995 237.600,352.072 237.600 C 349.392 237.600,347.200 237.440,347.200 237.245 C 347.200 237.049,349.367 233.862,352.016 230.161 C 361.052 217.537,362.588 212.028,359.089 204.800 C 355.836 198.082,348.721 194.428,341.274 195.652 " stroke="none" fill="#f69ea6" fill-rule="evenodd"></path><path id="path4" d="M307.200 178.200 C 307.946 178.970,308.647 179.600,308.757 179.600 C 308.867 179.600,308.346 178.970,307.600 178.200 C 306.854 177.430,306.153 176.800,306.043 176.800 C 305.933 176.800,306.454 177.430,307.200 178.200 M251.588 179.900 L 249.000 182.600 251.700 180.012 C 253.185 178.588,254.400 177.373,254.400 177.312 C 254.400 177.017,253.993 177.392,251.588 179.900 M202.300 179.882 C 202.795 179.978,203.605 179.978,204.100 179.882 C 204.595 179.787,204.190 179.709,203.200 179.709 C 202.210 179.709,201.805 179.787,202.300 179.882 M206.105 179.887 C 206.714 179.979,207.614 179.977,208.105 179.882 C 208.597 179.787,208.100 179.711,207.000 179.714 C 205.900 179.717,205.497 179.795,206.105 179.887 M278.500 179.894 C 279.545 179.976,281.255 179.976,282.300 179.894 C 283.345 179.812,282.490 179.744,280.400 179.744 C 278.310 179.744,277.455 179.812,278.500 179.894 M310.000 180.925 C 310.000 180.994,310.585 181.579,311.300 182.225 L 312.600 183.400 311.425 182.100 C 310.330 180.888,310.000 180.616,310.000 180.925 M320.909 204.800 C 320.909 205.790,320.987 206.195,321.082 205.700 C 321.178 205.205,321.178 204.395,321.082 203.900 C 320.987 203.405,320.909 203.810,320.909 204.800 M239.714 205.800 C 239.717 206.900,239.795 207.303,239.887 206.695 C 239.979 206.086,239.977 205.186,239.882 204.695 C 239.787 204.203,239.711 204.700,239.714 205.800 M309.344 208.800 C 309.344 210.890,309.412 211.745,309.494 210.700 C 309.576 209.655,309.576 207.945,309.494 206.900 C 309.412 205.855,309.344 206.710,309.344 208.800 M164.128 208.800 C 164.128 210.230,164.201 210.815,164.289 210.100 C 164.378 209.385,164.378 208.215,164.289 207.500 C 164.201 206.785,164.128 207.370,164.128 208.800 M239.714 211.800 C 239.717 212.900,239.795 213.303,239.887 212.695 C 239.979 212.086,239.977 211.186,239.882 210.695 C 239.787 210.203,239.711 210.700,239.714 211.800 M320.909 212.800 C 320.909 213.790,320.987 214.195,321.082 213.700 C 321.178 213.205,321.178 212.395,321.082 211.900 C 320.987 211.405,320.909 211.810,320.909 212.800 M240.056 216.000 C 240.056 216.330,240.211 216.960,240.400 217.400 C 240.617 217.904,240.744 217.978,240.744 217.600 C 240.744 217.270,240.589 216.640,240.400 216.200 C 240.183 215.696,240.056 215.622,240.056 216.000 M107.600 227.182 C 107.270 227.405,106.156 227.591,105.124 227.594 C 104.092 227.597,103.136 227.780,103.000 228.000 C 102.864 228.220,102.234 228.400,101.600 228.400 C 100.966 228.400,100.336 228.580,100.200 228.800 C 100.064 229.020,99.620 229.200,99.214 229.200 C 98.528 229.200,97.540 229.628,93.400 231.720 C 88.760 234.066,79.200 242.456,79.200 244.184 C 79.200 244.486,79.016 244.825,78.790 244.937 C 78.565 245.049,78.519 245.104,78.690 245.060 C 78.861 245.016,80.080 244.471,81.400 243.849 C 82.720 243.226,84.160 242.556,84.600 242.358 C 91.133 239.428,106.306 239.434,113.000 242.369 C 113.440 242.562,114.653 243.098,115.696 243.560 C 116.738 244.022,117.696 244.400,117.824 244.400 C 117.951 244.400,118.841 244.940,119.800 245.600 C 120.759 246.260,121.661 246.800,121.804 246.800 C 124.732 246.800,137.600 262.823,137.600 266.469 C 137.600 266.783,137.749 267.211,137.930 267.420 C 138.561 268.145,139.838 273.432,140.199 276.808 C 140.631 280.854,140.678 280.890,146.608 281.646 C 154.599 282.664,158.977 284.071,164.855 287.511 C 184.336 298.911,191.902 323.726,182.158 344.262 C 181.411 345.835,180.800 347.320,180.800 347.562 C 180.800 348.122,181.488 348.135,181.674 347.578 C 181.751 347.346,182.081 347.095,182.407 347.019 C 184.397 346.559,184.857 346.259,184.670 345.545 C 184.545 345.069,184.686 344.800,185.061 344.800 C 185.383 344.800,185.536 344.620,185.400 344.400 C 185.259 344.172,185.610 344.000,186.219 344.000 C 186.992 344.000,187.224 343.839,187.060 343.413 C 186.936 343.090,186.992 342.729,187.183 342.610 C 187.375 342.492,187.623 342.621,187.734 342.898 C 187.846 343.174,187.951 343.023,187.968 342.561 C 188.004 341.604,189.470 339.736,189.870 340.137 C 190.347 340.614,191.600 339.100,191.606 338.038 C 191.611 337.221,191.695 337.128,192.000 337.600 C 192.329 338.109,192.389 338.090,192.394 337.476 C 192.397 337.078,192.580 336.864,192.800 337.000 C 193.020 337.136,193.200 336.877,193.200 336.424 C 193.200 335.971,193.358 335.600,193.551 335.600 C 193.745 335.600,194.127 335.060,194.400 334.400 C 194.673 333.740,195.055 333.200,195.249 333.200 C 195.442 333.200,195.600 332.840,195.600 332.400 C 195.600 331.960,195.780 331.600,196.000 331.600 C 196.220 331.600,196.400 331.251,196.400 330.824 C 196.400 330.397,196.580 329.936,196.800 329.800 C 197.020 329.664,197.200 329.203,197.200 328.776 C 197.200 328.349,197.380 328.000,197.600 328.000 C 197.820 328.000,198.000 327.638,198.000 327.195 C 198.000 326.752,198.158 326.077,198.351 325.695 C 199.018 324.374,199.600 322.138,199.600 320.895 C 199.600 320.209,199.780 319.536,200.000 319.400 C 201.003 318.780,200.481 304.216,199.421 303.219 C 198.882 302.714,198.321 301.737,198.174 301.050 C 197.848 299.526,196.913 296.557,196.331 295.200 C 195.600 293.497,193.496 289.411,193.242 289.200 C 193.109 289.090,192.730 288.523,192.400 287.940 C 190.836 285.178,185.376 279.310,182.200 276.979 C 181.320 276.333,180.510 275.714,180.400 275.602 C 177.371 272.538,166.004 268.937,157.800 268.442 L 153.800 268.200 153.537 266.000 C 153.393 264.790,153.142 262.670,152.981 261.289 C 152.819 259.907,152.532 258.682,152.343 258.565 C 152.155 258.448,152.000 257.922,152.000 257.395 C 152.000 256.869,151.798 255.934,151.550 255.319 C 151.303 254.703,150.977 253.840,150.827 253.400 C 150.399 252.145,147.047 245.541,146.587 245.045 C 146.360 244.800,145.741 243.970,145.213 243.200 C 141.666 238.032,134.106 232.409,126.800 229.504 C 126.250 229.286,125.487 228.948,125.105 228.753 C 124.723 228.559,123.904 228.400,123.285 228.400 C 122.666 228.400,121.989 228.237,121.780 228.039 C 120.925 227.226,108.633 226.483,107.600 227.182 M184.400 229.400 C 185.146 230.170,185.847 230.800,185.957 230.800 C 186.067 230.800,185.546 230.170,184.800 229.400 C 184.054 228.630,183.353 228.000,183.243 228.000 C 183.133 228.000,183.654 228.630,184.400 229.400 M221.178 231.500 L 219.800 233.000 221.300 231.622 C 222.125 230.863,222.800 230.188,222.800 230.122 C 222.800 229.816,222.462 230.104,221.178 231.500 M251.400 237.600 C 252.928 239.140,254.269 240.400,254.379 240.400 C 254.489 240.400,253.328 239.140,251.800 237.600 C 250.272 236.060,248.931 234.800,248.821 234.800 C 248.711 234.800,249.872 236.060,251.400 237.600 M201.105 249.483 C 201.602 249.579,202.322 249.575,202.705 249.475 C 203.087 249.375,202.680 249.296,201.800 249.301 C 200.920 249.305,200.607 249.387,201.105 249.483 M207.700 249.476 C 208.085 249.576,208.715 249.576,209.100 249.476 C 209.485 249.375,209.170 249.293,208.400 249.293 C 207.630 249.293,207.315 249.375,207.700 249.476 M276.705 249.483 C 277.202 249.579,277.922 249.575,278.305 249.475 C 278.687 249.375,278.280 249.296,277.400 249.301 C 276.520 249.305,276.207 249.387,276.705 249.483 M282.700 249.482 C 283.195 249.578,284.005 249.578,284.500 249.482 C 284.995 249.387,284.590 249.309,283.600 249.309 C 282.610 249.309,282.205 249.387,282.700 249.482 " stroke="none" fill="#b4b4ba" fill-rule="evenodd"></path><path id="path5" d="M339.600 195.603 C 339.190 195.870,339.635 195.914,341.000 195.741 C 342.100 195.601,343.075 195.423,343.167 195.344 C 343.564 195.001,340.141 195.250,339.600 195.603 M344.833 195.344 C 344.925 195.423,345.990 195.599,347.200 195.734 C 348.670 195.898,349.201 195.852,348.800 195.596 C 348.256 195.248,344.442 195.006,344.833 195.344 M351.542 197.065 C 361.232 201.752,363.357 212.896,356.601 223.598 C 356.045 224.479,355.742 225.200,355.928 225.200 C 357.221 225.200,361.189 214.930,361.196 211.566 C 361.208 205.289,354.469 195.910,350.022 196.015 C 349.680 196.023,350.364 196.495,351.542 197.065 M334.400 198.152 C 333.410 198.885,332.240 199.901,331.800 200.409 C 331.360 200.918,332.006 200.539,333.236 199.567 C 334.466 198.595,335.816 197.586,336.236 197.324 C 336.656 197.061,336.820 196.841,336.600 196.833 C 336.380 196.826,335.390 197.419,334.400 198.152 M329.270 204.100 C 328.606 205.475,327.901 207.320,327.703 208.200 C 326.063 215.479,336.012 219.135,339.240 212.440 C 339.727 211.428,340.352 210.150,340.627 209.600 C 342.463 205.932,348.351 207.594,348.423 211.800 C 348.447 213.191,348.499 213.280,348.821 212.477 C 349.727 210.218,347.071 207.200,344.177 207.200 C 341.924 207.200,340.273 208.571,339.415 211.154 C 337.694 216.337,331.559 217.232,328.798 212.704 C 327.437 210.472,328.169 205.933,330.394 202.808 C 330.867 202.144,331.079 201.600,330.865 201.600 C 330.652 201.600,329.934 202.725,329.270 204.100 M347.358 215.068 C 346.420 217.094,343.186 221.829,337.162 230.000 C 335.458 232.310,333.078 235.538,331.872 237.174 C 328.342 241.961,328.005 245.122,330.742 247.745 C 332.965 249.873,333.831 250.000,346.161 250.000 C 359.193 250.000,360.410 249.745,362.067 246.670 C 362.283 246.268,361.743 246.657,360.866 247.534 C 358.821 249.579,357.629 249.720,343.995 249.532 C 332.680 249.376,332.017 249.237,330.482 246.710 C 328.471 243.399,328.965 241.689,333.800 235.200 C 341.789 224.481,345.607 219.085,347.204 216.254 C 347.915 214.994,348.400 213.867,348.283 213.749 C 348.165 213.631,347.749 214.225,347.358 215.068 M351.466 230.918 C 347.560 236.358,346.820 237.600,347.491 237.600 C 347.697 237.600,347.867 237.375,347.868 237.100 C 347.869 236.641,353.655 228.321,355.102 226.698 C 355.447 226.311,355.633 225.900,355.517 225.784 C 355.401 225.667,353.578 227.978,351.466 230.918 M358.000 237.962 C 358.330 238.196,358.851 238.391,359.157 238.394 C 359.933 238.402,361.935 240.579,362.182 241.684 C 362.295 242.188,362.449 243.320,362.526 244.200 C 362.660 245.735,362.668 245.722,362.733 243.880 C 362.837 240.905,361.095 238.342,358.600 237.797 C 357.690 237.599,357.545 237.638,358.000 237.962 " stroke="none" fill="#e4c8cf" fill-rule="evenodd"></path><path id="path6" d="M176.493 207.200 C 176.493 207.970,176.575 208.285,176.676 207.900 C 176.776 207.515,176.776 206.885,176.676 206.500 C 176.575 206.115,176.493 206.430,176.493 207.200 M176.493 210.400 C 176.493 211.170,176.575 211.485,176.676 211.100 C 176.776 210.715,176.776 210.085,176.676 209.700 C 176.575 209.315,176.493 209.630,176.493 210.400 M115.300 226.676 C 115.685 226.776,116.315 226.776,116.700 226.676 C 117.085 226.575,116.770 226.493,116.000 226.493 C 115.230 226.493,114.915 226.575,115.300 226.676 M203.511 237.493 C 204.451 237.578,205.891 237.577,206.711 237.491 C 207.530 237.405,206.760 237.336,205.000 237.337 C 203.240 237.339,202.570 237.409,203.511 237.493 M279.111 237.493 C 280.051 237.578,281.491 237.577,282.311 237.491 C 283.130 237.405,282.360 237.336,280.600 237.337 C 278.840 237.339,278.170 237.409,279.111 237.493 M71.385 264.185 C 71.230 265.423,71.190 266.523,71.295 266.629 C 71.401 266.734,71.607 265.801,71.754 264.554 C 71.900 263.307,71.941 262.207,71.843 262.110 C 71.746 262.012,71.539 262.946,71.385 264.185 M46.873 268.299 C 51.204 268.364,58.404 268.364,62.873 268.300 C 67.343 268.235,63.800 268.182,55.000 268.182 C 46.200 268.182,42.543 268.235,46.873 268.299 M33.800 269.200 C 33.296 269.417,33.222 269.544,33.600 269.544 C 33.930 269.544,34.560 269.389,35.000 269.200 C 35.504 268.983,35.578 268.856,35.200 268.856 C 34.870 268.856,34.240 269.011,33.800 269.200 " stroke="none" fill="#d9d4d4" fill-rule="evenodd"></path><path id="path7" d="M217.081 44.252 C 216.944 44.389,216.330 44.555,215.716 44.621 C 215.102 44.686,213.698 44.832,212.597 44.945 C 211.495 45.058,210.325 45.248,209.997 45.367 C 209.668 45.485,208.770 45.661,208.000 45.758 C 206.326 45.968,201.724 47.114,200.600 47.601 C 200.160 47.791,199.080 48.164,198.200 48.429 C 197.320 48.694,196.240 49.043,195.800 49.205 C 194.003 49.865,187.508 52.878,187.200 53.195 C 186.737 53.670,185.166 54.400,184.605 54.400 C 184.272 54.400,184.000 54.536,184.000 54.702 C 184.000 54.869,183.415 55.259,182.700 55.570 C 181.985 55.881,181.310 56.254,181.200 56.398 C 181.090 56.542,179.830 57.448,178.400 58.410 C 176.970 59.373,175.350 60.576,174.800 61.084 C 174.250 61.593,173.485 62.109,173.100 62.231 C 172.715 62.354,172.400 62.652,172.400 62.894 C 172.400 63.135,172.291 63.224,172.158 63.091 C 172.024 62.958,171.519 63.243,171.034 63.724 C 170.550 64.206,169.494 65.123,168.688 65.763 C 167.883 66.402,166.766 67.617,166.206 68.463 C 165.646 69.308,164.876 70.014,164.494 70.032 C 164.112 70.049,164.008 70.148,164.261 70.252 C 164.769 70.460,163.050 72.400,162.358 72.400 C 162.135 72.400,162.064 72.580,162.200 72.800 C 162.336 73.020,162.187 73.200,161.868 73.200 C 161.550 73.200,161.314 73.511,161.344 73.890 C 161.375 74.270,161.175 74.608,160.900 74.640 C 159.867 74.764,159.815 74.822,160.400 75.200 C 161.254 75.752,161.147 75.794,164.496 73.617 C 170.355 69.809,178.745 65.973,185.200 64.151 C 191.426 62.394,193.100 62.030,198.677 61.218 C 202.255 60.698,216.462 60.668,219.069 61.176 C 220.131 61.382,222.260 61.750,223.800 61.993 C 226.713 62.453,227.199 62.570,232.800 64.152 C 239.268 65.980,247.753 69.816,252.928 73.254 C 254.209 74.104,255.333 74.800,255.426 74.800 C 256.800 74.800,270.798 87.510,273.130 90.874 C 273.483 91.384,274.109 92.160,274.521 92.600 C 277.273 95.540,283.359 106.083,286.067 112.600 C 287.658 116.431,289.406 122.282,290.369 127.000 C 290.594 128.100,290.962 129.845,291.189 130.877 C 291.415 131.910,291.617 133.800,291.639 135.077 C 291.754 142.055,293.078 143.600,298.938 143.600 C 306.771 143.600,315.756 145.241,324.600 148.287 C 326.800 149.045,328.960 149.773,329.400 149.904 C 333.362 151.092,345.977 158.488,351.198 162.686 C 385.409 190.189,394.107 239.651,371.266 276.800 C 370.522 278.010,369.528 279.630,369.057 280.400 C 368.586 281.170,368.246 281.935,368.301 282.100 C 368.355 282.265,368.259 282.400,368.086 282.400 C 367.913 282.400,367.771 282.744,367.771 283.164 C 367.771 283.826,367.930 283.772,368.962 282.764 C 369.616 282.124,370.388 281.600,370.676 281.600 C 370.964 281.600,371.200 281.251,371.200 280.824 C 371.200 279.944,371.854 279.362,372.080 280.040 C 372.162 280.285,372.578 279.836,373.005 279.042 C 373.448 278.221,374.087 277.600,374.491 277.600 C 374.881 277.600,375.200 277.317,375.200 276.971 C 375.200 276.243,375.899 275.469,376.900 275.090 C 377.285 274.944,377.600 274.539,377.600 274.189 C 377.600 273.839,377.767 273.656,377.971 273.782 C 378.175 273.908,378.464 273.630,378.612 273.163 C 379.025 271.862,380.089 270.801,380.989 270.794 C 381.671 270.789,381.705 270.720,381.200 270.363 C 380.727 270.029,380.711 269.894,381.123 269.729 C 381.947 269.397,383.635 267.580,383.429 267.247 C 383.327 267.081,383.593 266.693,384.021 266.385 C 384.450 266.076,384.800 265.599,384.800 265.326 C 384.800 265.052,385.166 264.632,385.613 264.393 C 386.060 264.154,386.376 263.743,386.315 263.479 C 386.255 263.216,386.384 262.942,386.603 262.872 C 387.101 262.710,387.601 261.832,387.809 260.752 C 387.897 260.295,388.302 259.623,388.708 259.260 C 389.591 258.470,392.600 252.629,391.901 253.061 C 391.634 253.226,391.816 252.851,392.307 252.227 C 392.798 251.603,393.200 250.767,393.200 250.370 C 393.200 249.972,393.380 249.536,393.600 249.400 C 393.820 249.264,394.000 248.803,394.000 248.376 C 394.000 247.949,394.180 247.600,394.400 247.600 C 394.620 247.600,394.800 247.180,394.800 246.667 C 394.800 246.153,394.923 245.610,395.074 245.459 C 395.473 245.061,396.387 242.318,396.394 241.500 C 396.397 241.115,396.580 240.800,396.800 240.800 C 397.020 240.800,397.200 240.260,397.200 239.600 C 397.200 238.940,397.362 238.400,397.560 238.400 C 397.758 238.400,398.014 237.635,398.131 236.700 C 398.247 235.765,398.544 234.100,398.792 233.000 C 399.040 231.900,399.403 229.830,399.601 228.400 C 400.069 224.999,400.056 205.400,399.582 201.800 C 398.881 196.473,398.714 195.594,398.358 195.374 C 398.161 195.252,398.000 194.544,398.000 193.800 C 398.000 193.056,397.820 192.336,397.600 192.200 C 397.380 192.064,397.200 191.344,397.200 190.600 C 397.200 189.856,397.020 189.136,396.800 189.000 C 396.580 188.864,396.400 188.324,396.400 187.800 C 396.400 187.276,396.220 186.736,396.000 186.600 C 395.780 186.464,395.600 185.913,395.600 185.376 C 395.600 184.839,395.420 184.400,395.200 184.400 C 394.980 184.400,394.800 183.939,394.800 183.376 C 394.800 182.796,394.627 182.460,394.400 182.600 C 394.167 182.744,394.000 182.337,394.000 181.624 C 394.000 180.951,393.820 180.400,393.600 180.400 C 393.380 180.400,393.200 180.040,393.200 179.600 C 393.200 179.160,393.020 178.800,392.800 178.800 C 392.580 178.800,392.400 178.440,392.400 178.000 C 392.400 177.560,392.220 177.200,392.000 177.200 C 391.780 177.200,391.600 176.966,391.600 176.680 C 391.600 175.920,390.654 174.007,390.276 174.003 C 390.098 174.001,390.055 173.835,390.180 173.632 C 390.305 173.430,390.144 173.001,389.823 172.680 C 389.501 172.358,389.350 171.984,389.486 171.848 C 389.622 171.711,389.513 171.600,389.243 171.600 C 388.973 171.600,388.851 171.440,388.972 171.245 C 389.093 171.050,388.923 170.668,388.596 170.396 C 388.268 170.124,388.000 169.725,388.000 169.509 C 388.000 169.293,387.460 168.316,386.800 167.338 C 386.140 166.360,385.600 165.389,385.600 165.180 C 385.600 164.971,385.450 164.800,385.268 164.800 C 385.085 164.800,384.698 164.356,384.407 163.814 C 384.117 163.271,383.699 162.939,383.478 163.075 C 383.253 163.215,383.200 163.124,383.358 162.868 C 383.519 162.607,383.032 161.854,382.220 161.109 C 381.439 160.392,380.800 159.581,380.800 159.306 C 380.800 159.032,380.440 158.582,380.000 158.307 C 379.560 158.032,379.200 157.658,379.200 157.475 C 379.200 156.956,378.124 156.009,377.848 156.286 C 377.711 156.422,377.600 156.311,377.600 156.040 C 377.600 155.516,371.577 149.418,369.066 147.400 C 368.245 146.740,366.999 145.705,366.298 145.100 C 365.596 144.495,364.910 144.000,364.773 144.000 C 364.636 144.000,364.001 143.550,363.362 143.000 C 362.723 142.451,361.975 142.001,361.700 142.000 C 361.425 142.000,361.200 141.820,361.200 141.600 C 361.200 141.380,360.930 141.200,360.600 141.200 C 360.270 141.200,360.000 141.020,360.000 140.800 C 360.000 140.580,359.730 140.400,359.400 140.400 C 359.070 140.400,358.800 140.220,358.800 140.000 C 358.800 139.780,358.517 139.600,358.171 139.600 C 357.826 139.600,357.271 139.328,356.939 138.996 C 356.607 138.664,356.170 138.495,355.968 138.620 C 355.765 138.745,355.600 138.657,355.600 138.424 C 355.600 138.191,355.412 138.000,355.183 138.000 C 354.954 138.000,354.409 137.667,353.973 137.261 C 353.536 136.854,352.464 136.285,351.590 135.997 C 350.715 135.708,350.000 135.321,350.000 135.136 C 350.000 134.951,349.550 134.800,349.000 134.800 C 348.450 134.800,348.000 134.620,348.000 134.400 C 348.000 134.180,347.640 134.000,347.200 134.000 C 346.760 134.000,346.400 133.854,346.400 133.676 C 346.400 133.497,345.500 133.121,344.400 132.839 C 343.300 132.557,342.400 132.163,342.400 131.963 C 342.400 131.763,341.860 131.600,341.200 131.600 C 340.540 131.600,340.000 131.422,340.000 131.204 C 340.000 130.987,339.595 130.821,339.100 130.836 C 338.605 130.851,337.137 130.489,335.838 130.032 C 334.539 129.574,332.884 129.200,332.162 129.200 C 331.439 129.200,330.748 129.039,330.626 128.842 C 330.505 128.645,329.729 128.391,328.903 128.277 C 328.076 128.163,326.770 127.970,326.000 127.849 C 321.678 127.169,315.828 126.824,312.545 127.055 L 308.800 127.318 308.800 124.926 C 308.800 123.610,308.665 122.398,308.500 122.233 C 308.335 122.068,308.181 121.003,308.158 119.867 C 308.078 115.895,307.998 115.154,307.669 115.357 C 307.487 115.470,307.363 114.805,307.394 113.881 C 307.424 112.956,307.282 111.750,307.077 111.200 C 306.873 110.650,306.635 109.662,306.550 109.005 C 306.464 108.347,306.270 107.447,306.118 107.005 C 305.967 106.562,305.889 105.962,305.946 105.670 C 306.002 105.379,305.868 104.923,305.648 104.658 C 305.428 104.392,305.162 103.702,305.057 103.123 C 304.952 102.544,304.665 101.694,304.419 101.235 C 304.173 100.776,304.104 100.400,304.266 100.400 C 304.428 100.400,304.344 100.184,304.080 99.920 C 303.816 99.656,303.600 99.026,303.600 98.520 C 303.600 98.014,303.420 97.600,303.200 97.600 C 302.980 97.600,302.800 97.240,302.800 96.800 C 302.800 96.360,302.609 96.000,302.376 96.000 C 302.143 96.000,302.044 95.852,302.156 95.671 C 302.268 95.491,302.098 94.840,301.780 94.226 C 301.461 93.611,301.200 92.859,301.200 92.554 C 301.200 92.249,301.020 92.000,300.800 92.000 C 300.580 92.000,300.400 91.640,300.400 91.200 C 300.400 90.760,300.220 90.400,300.000 90.400 C 299.780 90.400,299.600 90.040,299.600 89.600 C 299.600 89.160,299.420 88.800,299.200 88.800 C 298.980 88.800,298.800 88.440,298.800 88.000 C 298.800 87.560,298.632 87.200,298.426 87.200 C 298.220 87.200,297.824 86.570,297.546 85.800 C 297.267 85.030,296.895 84.400,296.720 84.400 C 296.544 84.400,296.400 84.130,296.400 83.800 C 296.400 83.470,296.220 83.200,296.000 83.200 C 295.780 83.200,295.600 82.970,295.600 82.688 C 295.600 82.407,295.240 81.917,294.800 81.600 C 294.360 81.283,294.000 80.703,294.000 80.312 C 294.000 79.920,293.859 79.600,293.686 79.600 C 293.514 79.600,293.029 79.015,292.609 78.300 C 292.188 77.585,290.954 76.055,289.864 74.900 C 288.775 73.745,288.007 72.800,288.158 72.800 C 288.309 72.800,287.975 72.307,287.416 71.704 C 286.857 71.101,286.400 70.471,286.400 70.304 C 286.400 70.137,286.119 70.000,285.776 70.000 C 285.433 70.000,285.264 69.820,285.400 69.600 C 285.536 69.380,285.487 69.200,285.291 69.200 C 285.095 69.200,283.856 68.165,282.539 66.900 C 281.222 65.635,279.468 64.060,278.642 63.400 C 277.816 62.740,276.838 61.924,276.470 61.588 C 276.101 61.251,275.305 60.726,274.700 60.420 C 274.095 60.115,273.600 59.715,273.600 59.532 C 273.600 59.350,273.330 59.200,273.000 59.200 C 272.670 59.200,272.400 59.050,272.400 58.868 C 272.400 58.685,271.905 58.280,271.300 57.968 C 270.695 57.655,269.851 57.085,269.425 56.700 C 268.998 56.315,268.413 56.000,268.125 56.000 C 267.836 56.000,267.600 55.820,267.600 55.600 C 267.600 55.380,267.210 55.200,266.733 55.200 C 266.257 55.200,265.984 55.083,266.127 54.939 C 266.271 54.796,265.086 54.058,263.494 53.300 C 261.902 52.542,260.130 51.674,259.556 51.371 C 258.982 51.069,258.397 50.936,258.256 51.077 C 258.115 51.218,258.000 51.123,258.000 50.867 C 258.000 50.610,257.752 50.400,257.449 50.400 C 257.146 50.400,256.201 50.098,255.349 49.730 C 254.497 49.361,253.448 48.996,253.017 48.919 C 252.587 48.843,252.137 48.649,252.017 48.490 C 251.786 48.181,251.048 47.969,249.904 47.883 C 249.517 47.854,249.200 47.688,249.200 47.515 C 249.200 47.342,249.065 47.236,248.900 47.279 C 248.735 47.322,246.530 46.848,244.000 46.226 C 241.470 45.603,238.500 45.039,237.400 44.973 C 236.300 44.906,234.950 44.721,234.400 44.561 C 233.142 44.195,217.418 43.915,217.081 44.252 M204.305 167.483 C 204.802 167.579,205.522 167.575,205.905 167.475 C 206.287 167.375,205.880 167.296,205.000 167.301 C 204.120 167.305,203.807 167.387,204.305 167.483 M279.700 167.476 C 280.085 167.576,280.715 167.576,281.100 167.476 C 281.485 167.375,281.170 167.293,280.400 167.293 C 279.630 167.293,279.315 167.375,279.700 167.476 M199.105 167.883 C 199.602 167.979,200.322 167.975,200.705 167.875 C 201.087 167.775,200.680 167.696,199.800 167.701 C 198.920 167.705,198.607 167.787,199.105 167.883 M209.500 167.882 C 209.995 167.978,210.805 167.978,211.300 167.882 C 211.795 167.787,211.390 167.709,210.400 167.709 C 209.410 167.709,209.005 167.787,209.500 167.882 M274.300 167.882 C 274.795 167.978,275.605 167.978,276.100 167.882 C 276.595 167.787,276.190 167.709,275.200 167.709 C 274.210 167.709,273.805 167.787,274.300 167.882 M284.700 167.882 C 285.195 167.978,286.005 167.978,286.500 167.882 C 286.995 167.787,286.590 167.709,285.600 167.709 C 284.610 167.709,284.205 167.787,284.700 167.882 M250.788 179.900 L 248.200 182.600 250.900 180.012 C 252.385 178.588,253.600 177.373,253.600 177.312 C 253.600 177.017,253.193 177.392,250.788 179.900 M309.400 179.600 C 310.706 180.920,311.865 182.000,311.975 182.000 C 312.085 182.000,311.106 180.920,309.800 179.600 C 308.494 178.280,307.335 177.200,307.225 177.200 C 307.115 177.200,308.094 178.280,309.400 179.600 M202.400 180.362 C 201.164 180.542,202.012 180.634,205.111 180.656 C 207.592 180.674,209.572 180.645,209.511 180.593 C 209.178 180.309,203.938 180.138,202.400 180.362 M278.000 180.400 L 276.200 180.680 277.800 180.700 C 278.680 180.711,279.850 180.576,280.400 180.400 C 281.663 179.995,280.602 179.995,278.000 180.400 M282.300 180.682 C 282.795 180.778,283.605 180.778,284.100 180.682 C 284.595 180.587,284.190 180.509,283.200 180.509 C 282.210 180.509,281.805 180.587,282.300 180.682 M296.400 185.311 C 296.400 185.387,296.985 185.878,297.700 186.401 C 298.504 186.990,298.784 187.087,298.433 186.655 C 297.900 185.999,296.400 185.007,296.400 185.311 M223.905 186.283 C 224.402 186.379,225.122 186.375,225.505 186.275 C 225.887 186.175,225.480 186.096,224.600 186.101 C 223.720 186.105,223.407 186.187,223.905 186.283 M184.800 188.600 C 183.828 189.590,183.123 190.400,183.233 190.400 C 183.343 190.400,184.228 189.590,185.200 188.600 C 186.172 187.610,186.877 186.800,186.767 186.800 C 186.657 186.800,185.772 187.610,184.800 188.600 M320.468 199.000 C 320.462 199.440,320.611 200.160,320.800 200.600 C 321.238 201.619,321.238 200.568,320.800 199.200 C 320.543 198.396,320.477 198.357,320.468 199.000 M308.487 205.600 C 308.491 206.150,308.632 207.140,308.800 207.800 L 309.105 209.000 309.113 207.800 C 309.117 207.140,308.976 206.150,308.800 205.600 L 308.480 204.600 308.487 205.600 M238.944 208.800 C 238.944 210.890,239.012 211.745,239.094 210.700 C 239.176 209.655,239.176 207.945,239.094 206.900 C 239.012 205.855,238.944 206.710,238.944 208.800 M321.734 208.800 C 321.734 210.450,321.805 211.125,321.891 210.300 C 321.978 209.475,321.978 208.125,321.891 207.300 C 321.805 206.475,321.734 207.150,321.734 208.800 M163.720 208.800 C 163.720 210.010,163.795 210.505,163.887 209.900 C 163.978 209.295,163.978 208.305,163.887 207.700 C 163.795 207.095,163.720 207.590,163.720 208.800 M251.693 208.800 C 251.693 209.570,251.775 209.885,251.876 209.500 C 251.976 209.115,251.976 208.485,251.876 208.100 C 251.775 207.715,251.693 208.030,251.693 208.800 M308.600 210.800 C 308.446 211.710,308.411 212.544,308.521 212.654 C 308.631 212.764,308.846 212.110,309.000 211.200 C 309.154 210.290,309.189 209.456,309.079 209.346 C 308.969 209.236,308.754 209.890,308.600 210.800 M165.044 219.800 C 165.373 221.271,165.602 221.590,165.594 220.567 C 165.591 220.145,165.405 219.530,165.182 219.200 C 164.885 218.762,164.848 218.924,165.044 219.800 M166.618 224.500 C 166.768 224.995,167.055 225.576,167.256 225.791 C 167.457 226.006,167.419 225.601,167.172 224.891 C 166.665 223.438,166.197 223.108,166.618 224.500 M317.665 226.217 C 316.995 227.688,317.123 228.002,317.847 226.665 C 318.186 226.040,318.388 225.454,318.296 225.363 C 318.205 225.271,317.921 225.656,317.665 226.217 M104.800 226.821 C 104.370 227.114,104.654 227.154,105.800 226.962 C 107.784 226.630,108.104 226.398,106.567 226.406 C 105.925 226.409,105.130 226.596,104.800 226.821 M117.233 226.544 C 117.325 226.624,118.210 226.796,119.200 226.927 C 120.402 227.086,120.734 227.047,120.200 226.810 C 119.436 226.472,116.886 226.243,117.233 226.544 M225.738 227.506 C 225.484 227.668,226.142 227.800,227.200 227.800 C 228.258 227.800,228.916 227.668,228.662 227.506 C 228.408 227.344,227.750 227.212,227.200 227.212 C 226.650 227.212,225.992 227.344,225.738 227.506 M184.800 229.000 C 185.546 229.770,186.247 230.400,186.357 230.400 C 186.467 230.400,185.946 229.770,185.200 229.000 C 184.454 228.230,183.753 227.600,183.643 227.600 C 183.533 227.600,184.054 228.230,184.800 229.000 M221.460 230.468 L 219.000 232.935 221.600 230.588 C 223.030 229.297,224.275 228.187,224.367 228.120 C 224.458 228.054,224.395 228.000,224.227 228.000 C 224.058 228.000,222.813 229.110,221.460 230.468 M297.200 231.649 C 295.806 232.871,295.805 232.872,297.088 232.019 C 297.796 231.548,298.482 230.991,298.612 230.781 C 298.997 230.157,298.677 230.354,297.200 231.649 M233.301 233.800 C 233.305 234.680,233.387 234.993,233.483 234.495 C 233.579 233.998,233.575 233.278,233.475 232.895 C 233.375 232.513,233.296 232.920,233.301 233.800 M88.060 234.003 C 87.147 234.664,86.400 235.303,86.400 235.423 C 86.400 235.611,88.654 234.077,89.780 233.122 C 90.727 232.319,89.556 232.918,88.060 234.003 M139.055 235.941 C 139.921 236.568,141.773 238.323,143.171 239.841 C 144.568 241.358,145.337 242.046,144.878 241.369 C 143.813 239.797,138.529 234.800,137.932 234.800 C 137.684 234.800,138.189 235.313,139.055 235.941 M250.800 237.800 C 251.546 238.570,252.247 239.200,252.357 239.200 C 252.467 239.200,251.946 238.570,251.200 237.800 C 250.454 237.030,249.753 236.400,249.643 236.400 C 249.533 236.400,250.054 237.030,250.800 237.800 M274.800 236.800 C 276.168 237.238,277.219 237.238,276.200 236.800 C 275.760 236.611,275.040 236.462,274.600 236.468 C 273.957 236.477,273.996 236.543,274.800 236.800 M284.600 236.819 C 284.042 237.071,284.285 237.107,285.400 236.938 C 286.280 236.804,287.075 236.628,287.167 236.547 C 287.510 236.244,285.368 236.471,284.600 236.819 M347.951 237.313 C 348.124 237.485,350.501 237.574,353.233 237.511 L 358.200 237.397 352.919 237.198 C 350.014 237.089,347.779 237.141,347.951 237.313 M175.638 238.100 C 175.732 238.155,176.527 238.830,177.404 239.600 L 179.000 241.000 177.622 239.500 C 176.863 238.675,176.068 238.000,175.855 238.000 C 175.641 238.000,175.544 238.045,175.638 238.100 M81.056 240.277 C 80.267 241.090,79.707 241.840,79.811 241.944 C 79.915 242.048,80.045 242.056,80.100 241.962 C 80.155 241.868,80.820 241.118,81.578 240.296 C 83.362 238.361,82.933 238.346,81.056 240.277 M146.985 244.700 C 147.602 245.635,148.183 246.400,148.276 246.400 C 148.564 246.400,147.033 243.966,146.432 243.469 C 146.120 243.211,146.368 243.765,146.985 244.700 M76.323 247.300 C 73.871 251.182,71.849 257.478,71.122 263.495 L 70.628 267.590 56.214 267.700 L 41.800 267.810 56.500 267.905 L 71.200 268.000 71.200 266.546 C 71.200 261.906,73.753 252.619,76.267 248.117 C 77.268 246.324,77.308 245.741,76.323 247.300 M149.725 249.400 C 150.252 250.500,151.006 252.259,151.400 253.309 C 151.793 254.359,152.192 255.141,152.286 255.048 C 152.526 254.808,150.100 249.075,149.370 248.159 C 149.038 247.742,149.197 248.300,149.725 249.400 M195.600 249.182 C 195.930 249.405,196.545 249.591,196.967 249.594 C 197.990 249.602,197.671 249.373,196.200 249.044 C 195.324 248.848,195.162 248.885,195.600 249.182 M213.200 249.200 C 212.376 249.464,212.341 249.526,213.000 249.554 C 213.440 249.573,214.070 249.413,214.400 249.200 C 215.101 248.747,214.614 248.747,213.200 249.200 M271.141 249.301 C 271.343 249.503,271.933 249.601,272.454 249.519 C 273.255 249.393,273.198 249.337,272.087 249.152 C 271.293 249.021,270.919 249.079,271.141 249.301 M288.600 249.200 L 287.400 249.505 288.476 249.553 C 289.068 249.579,289.664 249.420,289.800 249.200 C 289.936 248.980,289.992 248.821,289.924 248.847 C 289.856 248.873,289.260 249.032,288.600 249.200 M203.300 250.294 C 204.345 250.376,206.055 250.376,207.100 250.294 C 208.145 250.212,207.290 250.144,205.200 250.144 C 203.110 250.144,202.255 250.212,203.300 250.294 M278.500 250.294 C 279.545 250.376,281.255 250.376,282.300 250.294 C 283.345 250.212,282.490 250.144,280.400 250.144 C 278.310 250.144,277.455 250.212,278.500 250.294 M152.456 256.400 C 152.456 256.730,152.611 257.360,152.800 257.800 C 153.017 258.304,153.144 258.378,153.144 258.000 C 153.144 257.670,152.989 257.040,152.800 256.600 C 152.583 256.096,152.456 256.022,152.456 256.400 M153.280 259.800 C 153.280 260.240,153.424 261.050,153.600 261.600 C 153.854 262.392,153.920 262.433,153.920 261.800 C 153.920 261.360,153.776 260.550,153.600 260.000 C 153.346 259.208,153.280 259.167,153.280 259.800 M154.102 267.200 C 154.231 267.677,155.038 267.805,158.032 267.826 L 161.800 267.852 158.213 267.709 C 156.019 267.622,154.493 267.379,154.283 267.083 C 154.038 266.740,153.986 266.773,154.102 267.200 M35.800 268.400 L 34.600 268.705 36.000 268.713 C 36.770 268.717,37.850 268.576,38.400 268.400 C 39.799 267.952,37.561 267.952,35.800 268.400 M163.200 268.400 C 163.750 268.576,164.650 268.717,165.200 268.713 C 166.098 268.706,166.078 268.674,165.000 268.400 C 163.308 267.969,161.856 267.969,163.200 268.400 M29.800 269.946 C 26.578 271.084,23.057 272.749,23.800 272.783 C 24.020 272.794,24.920 272.452,25.800 272.025 C 27.494 271.201,30.870 269.951,33.200 269.283 C 34.015 269.049,34.266 268.868,33.800 268.849 C 33.360 268.831,31.560 269.324,29.800 269.946 M169.985 270.014 C 171.186 270.446,172.266 270.787,172.385 270.770 C 172.898 270.700,169.323 269.258,168.600 269.244 C 168.160 269.236,168.783 269.582,169.985 270.014 M172.833 270.939 C 173.364 271.383,178.784 273.899,178.613 273.622 C 178.393 273.266,173.452 270.800,172.959 270.800 C 172.798 270.800,172.742 270.863,172.833 270.939 M187.200 280.600 C 188.617 282.030,189.867 283.200,189.977 283.200 C 190.087 283.200,189.017 282.030,187.600 280.600 C 186.183 279.170,184.933 278.000,184.823 278.000 C 184.713 278.000,185.783 279.170,187.200 280.600 M190.740 284.716 C 191.233 285.409,191.844 286.104,192.097 286.260 C 192.350 286.417,192.154 285.977,191.660 285.284 C 191.167 284.591,190.556 283.896,190.303 283.740 C 190.050 283.583,190.246 284.023,190.740 284.716 M193.560 288.600 C 194.234 289.905,194.788 290.628,194.785 290.200 C 194.783 289.980,194.414 289.350,193.964 288.800 C 193.421 288.136,193.285 288.069,193.560 288.600 M195.478 292.195 C 195.844 292.962,196.214 293.519,196.301 293.432 C 196.484 293.249,195.270 290.800,194.996 290.800 C 194.895 290.800,195.112 291.428,195.478 292.195 M198.262 299.200 C 198.398 299.970,198.662 300.870,198.848 301.200 C 199.052 301.561,199.088 301.243,198.938 300.400 C 198.802 299.630,198.538 298.730,198.352 298.400 C 198.148 298.039,198.112 298.357,198.262 299.200 " stroke="none" fill="#dbd7dc" fill-rule="evenodd"></path><path id="path8" d="M300.800 188.600 C 301.546 189.370,302.247 190.000,302.357 190.000 C 302.467 190.000,301.946 189.370,301.200 188.600 C 300.454 187.830,299.753 187.200,299.643 187.200 C 299.533 187.200,300.054 187.830,300.800 188.600 M176.093 208.800 C 176.093 209.570,176.175 209.885,176.276 209.500 C 176.376 209.115,176.376 208.485,176.276 208.100 C 176.175 207.715,176.093 208.030,176.093 208.800 M106.400 227.200 C 105.576 227.464,105.541 227.526,106.200 227.554 C 106.640 227.573,107.270 227.413,107.600 227.200 C 108.301 226.747,107.814 226.747,106.400 227.200 M136.367 234.545 C 136.900 235.201,138.400 236.193,138.400 235.889 C 138.400 235.813,137.815 235.322,137.100 234.799 C 136.296 234.210,136.016 234.113,136.367 234.545 M83.186 239.100 L 81.000 241.400 83.300 239.214 C 84.565 238.011,85.600 236.976,85.600 236.914 C 85.600 236.617,85.218 236.963,83.186 239.100 M140.400 237.725 C 140.400 237.794,140.985 238.379,141.700 239.025 L 143.000 240.200 141.825 238.900 C 140.730 237.688,140.400 237.416,140.400 237.725 M93.400 240.241 C 91.470 240.520,85.107 242.058,84.425 242.410 C 81.777 243.777,79.365 244.645,79.150 244.307 C 78.992 244.059,78.799 244.077,78.626 244.357 C 78.476 244.601,78.588 244.803,78.876 244.806 C 79.261 244.811,79.241 244.925,78.800 245.237 C 77.990 245.809,78.584 245.591,81.200 244.354 C 87.233 241.500,91.551 240.600,99.200 240.600 C 105.436 240.600,105.845 240.662,111.800 242.510 C 118.677 244.643,126.006 249.588,130.534 255.150 C 131.138 255.893,131.713 256.421,131.810 256.323 C 132.319 255.814,122.847 246.800,121.804 246.800 C 121.661 246.800,120.759 246.260,119.800 245.600 C 118.841 244.940,117.951 244.400,117.824 244.400 C 117.696 244.400,116.738 244.022,115.696 243.560 C 114.653 243.098,113.440 242.562,113.000 242.369 C 109.183 240.696,98.375 239.522,93.400 240.241 M135.515 262.823 C 136.552 264.926,137.457 266.510,137.527 266.343 C 137.687 265.959,135.378 261.293,134.380 259.983 C 133.968 259.442,134.479 260.720,135.515 262.823 M137.606 267.233 C 137.631 267.951,139.160 272.019,139.172 271.400 C 139.189 270.524,138.311 267.778,137.874 267.341 C 137.723 267.190,137.603 267.142,137.606 267.233 M153.961 268.123 C 154.140 268.300,155.256 268.388,156.443 268.317 L 158.600 268.189 156.118 267.994 C 154.754 267.887,153.783 267.945,153.961 268.123 M139.450 274.200 C 140.211 281.493,141.066 282.416,146.600 281.916 C 147.819 281.806,147.416 281.691,144.907 281.434 C 141.029 281.038,140.861 280.887,140.331 277.320 C 139.788 273.661,139.164 271.449,139.450 274.200 M149.800 282.400 C 151.676 282.877,152.739 282.877,152.000 282.400 C 151.670 282.187,150.770 282.031,150.000 282.053 L 148.600 282.095 149.800 282.400 M153.600 283.200 C 154.968 283.638,156.019 283.638,155.000 283.200 C 154.560 283.011,153.840 282.862,153.400 282.868 C 152.757 282.877,152.796 282.943,153.600 283.200 M156.400 284.000 C 156.730 284.213,157.270 284.388,157.600 284.388 C 158.133 284.388,158.133 284.345,157.600 284.000 C 157.270 283.787,156.730 283.612,156.400 283.612 C 155.867 283.612,155.867 283.655,156.400 284.000 M158.600 284.800 C 158.736 285.020,159.039 285.200,159.274 285.200 C 160.351 285.200,166.874 289.012,170.152 291.557 C 172.281 293.209,176.691 298.091,178.503 300.800 C 180.804 304.241,181.759 305.346,180.404 303.000 C 176.394 296.059,169.617 289.764,162.106 286.005 C 158.760 284.330,158.188 284.134,158.600 284.800 M181.219 304.846 C 181.208 304.981,181.745 306.241,182.411 307.646 C 183.078 309.051,183.504 309.750,183.360 309.200 C 183.084 308.150,181.251 304.422,181.219 304.846 M184.456 313.000 C 184.456 313.440,184.611 314.160,184.800 314.600 L 185.144 315.400 185.144 314.600 C 185.144 314.160,184.989 313.440,184.800 313.000 L 184.456 312.200 184.456 313.000 M185.263 316.200 C 185.254 316.640,185.395 317.720,185.577 318.600 L 185.908 320.200 185.914 318.800 C 185.917 318.030,185.776 316.950,185.600 316.400 C 185.341 315.591,185.277 315.553,185.263 316.200 M186.151 325.200 C 186.151 327.730,186.216 328.765,186.296 327.500 C 186.375 326.235,186.375 324.165,186.296 322.900 C 186.216 321.635,186.151 322.670,186.151 325.200 M185.400 332.800 C 185.245 333.928,185.208 334.941,185.318 335.051 C 185.428 335.161,185.645 334.328,185.800 333.200 C 185.955 332.072,185.992 331.059,185.882 330.949 C 185.772 330.839,185.555 331.672,185.400 332.800 M183.957 338.479 C 182.776 342.171,182.624 342.832,183.148 342.000 C 183.726 341.083,185.311 335.978,185.088 335.755 C 184.980 335.646,184.471 336.872,183.957 338.479 M189.483 340.199 C 188.668 340.969,188.000 341.786,188.000 342.015 C 188.000 342.434,189.177 341.376,190.574 339.700 C 191.680 338.373,191.173 338.605,189.483 340.199 M185.400 344.400 C 185.536 344.620,185.356 344.800,185.000 344.800 C 184.644 344.800,184.462 344.976,184.595 345.192 C 184.747 345.439,185.127 345.403,185.619 345.096 C 186.559 344.508,186.632 344.000,185.776 344.000 C 185.433 344.000,185.264 344.180,185.400 344.400 M180.390 347.026 C 179.604 349.095,180.123 349.364,181.878 347.798 C 182.547 347.201,182.717 346.895,182.300 347.041 C 181.915 347.176,181.600 347.446,181.600 347.643 C 181.600 347.839,181.400 348.000,181.157 348.000 C 180.883 348.000,180.810 347.616,180.964 347.000 C 181.293 345.692,180.890 345.710,180.390 347.026 " stroke="none" fill="#bcbcbc" fill-rule="evenodd"></path></g></svg>