<?xml version="1.0" standalone="no"?>
<!DOCTYPE svg PUBLIC "-//W3C//DTD SVG 1.0//EN" "http://www.w3.org/TR/2001/REC-SVG-20010904/DTD/svg10.dtd">
<svg xmlns="http://www.w3.org/2000/svg" xmlns:xlink="http://www.w3.org/1999/xlink" id="body_1" width="320" height="320">

<g transform="matrix(0.88888896 0 0 0.88888896 0 0)">
	<g transform="matrix(0.9 0 0 0.9 0 0)">
		<g>
            <path d="M176.4 59.235C 175.85 59.679 175.04 60.345 174.6 60.714C 174.16 61.084 173.652 61.339 173.47 61.283C 173.289 61.226 173.264 61.379 173.414 61.623C 173.594 61.914 174.049 61.736 174.744 61.101C 175.325 60.57 176.319 59.745 176.954 59.268C 177.589 58.791 177.949 58.406 177.754 58.413C 177.559 58.421 176.95 58.79 176.4 59.235M198.2 61.262C 193.154 62.019 191.281 62.435 185.2 64.151C 178.75 65.972 170.355 69.809 164.509 73.608C 162.37 74.999 161.211 75.518 160.593 75.363C 159.786 75.16 158.402 76.022 158.399 76.729C 158.399 76.878 157.859 77.63 157.2 78.4C 156.541 79.17 156.001 80.025 156.001 80.3C 156 80.575 155.82 80.8 155.6 80.8C 155.38 80.8 155.2 81.081 155.2 81.424C 155.2 81.767 155.02 81.936 154.8 81.8C 154.58 81.664 154.4 81.923 154.4 82.376C 154.4 82.829 154.22 83.2 154 83.2C 153.78 83.2 153.6 83.436 153.6 83.725C 153.6 84.013 153.24 84.636 152.8 85.108C 152.36 85.58 152 86.244 152 86.583C 152 86.922 151.82 87.2 151.6 87.2C 151.38 87.2 151.2 87.56 151.2 88C 151.2 88.44 151.02 88.8 150.8 88.8C 150.58 88.8 150.4 89.16 150.4 89.6C 150.4 90.04 150.22 90.4 150 90.4C 149.78 90.4 149.6 90.736 149.6 91.146C 149.6 91.556 149.24 92.35 148.8 92.909C 148.36 93.469 148 94.202 148 94.539C 148 94.877 147.82 95.264 147.6 95.4C 147.38 95.536 147.2 96.097 147.2 96.647C 147.2 97.212 147.026 97.54 146.8 97.4C 146.567 97.256 146.4 97.663 146.4 98.376C 146.4 99.049 146.22 99.6 146 99.6C 145.78 99.6 145.6 100.14 145.6 100.8C 145.6 101.46 145.447 102 145.261 102C 145.074 102 144.905 102.581 144.885 103.292C 144.865 104.003 144.657 104.648 144.424 104.725C 144.191 104.803 144 105.482 144 106.233C 144 106.985 143.806 107.6 143.569 107.6C 143.332 107.6 143.171 108.185 143.21 108.9C 143.249 109.615 143.242 110.38 143.193 110.6C 143.145 110.82 143.127 111.135 143.153 111.3C 143.179 111.465 143.019 111.6 142.797 111.6C 142.561 111.6 142.456 112.422 142.542 113.585C 142.623 114.677 142.537 115.622 142.35 115.685C 142.164 115.748 141.891 118.192 141.744 121.115C 141.596 124.038 141.353 126.505 141.203 126.598C 141.054 126.69 126.817 126.79 109.566 126.82C 92.315 126.849 78.015 127.026 77.788 127.212C 77.562 127.399 76.302 127.589 74.988 127.634C 73.675 127.679 72.42 127.851 72.2 128.015C 71.98 128.18 70.99 128.418 70 128.544C 65.991 129.057 64.785 129.301 64.574 129.642C 64.452 129.839 63.838 130 63.21 130C 62.581 130 62.007 130.169 61.933 130.375C 61.86 130.582 61.312 130.815 60.715 130.894C 60.118 130.972 59.503 131.163 59.348 131.318C 59.193 131.473 58.737 131.6 58.333 131.6C 57.93 131.6 57.6 131.78 57.6 132C 57.6 132.22 57.06 132.4 56.4 132.4C 55.74 132.4 55.2 132.58 55.2 132.8C 55.2 133.02 54.761 133.2 54.224 133.2C 53.687 133.2 53.136 133.38 53 133.6C 52.864 133.82 52.403 134 51.976 134C 51.549 134 51.199 134.135 51.197 134.3C 51.193 134.659 49.256 135.6 48.52 135.6C 48.234 135.6 48 135.78 48 136C 48 136.22 47.629 136.4 47.176 136.4C 46.723 136.4 46.464 136.58 46.6 136.8C 46.74 137.027 46.404 137.2 45.824 137.2C 45.261 137.2 44.8 137.38 44.8 137.6C 44.8 137.82 44.519 138 44.176 138C 43.833 138 43.664 138.18 43.8 138.4C 43.936 138.62 43.711 138.8 43.299 138.8C 42.888 138.8 42.164 139.16 41.692 139.6C 41.22 140.04 40.556 140.4 40.217 140.4C 39.878 140.4 39.6 140.567 39.6 140.771C 39.6 140.975 38.88 141.46 38 141.848C 37.12 142.236 36.4 142.677 36.4 142.828C 36.4 142.979 35.862 143.326 35.205 143.598C 34.548 143.87 34.109 144.252 34.229 144.446C 34.349 144.641 34.167 144.8 33.824 144.8C 33.481 144.8 33.2 145.1 33.2 145.467C 33.2 145.833 33.088 146.021 32.95 145.884C 32.813 145.746 32.349 146.031 31.92 146.517C 31.49 147.003 31.262 147.162 31.411 146.87C 31.635 146.436 31.538 146.432 30.868 146.851C 30.419 147.131 30.141 147.504 30.249 147.68C 30.358 147.856 30.251 148 30.01 148C 29.415 148 26.793 150.66 27.093 150.96C 27.225 151.092 27.073 151.2 26.755 151.2C 26.437 151.2 25.912 151.588 25.588 152.062C 25.265 152.535 23.908 154.029 22.574 155.38C 21.24 156.731 20.03 158.144 19.887 158.519C 19.743 158.893 19.349 159.2 19.013 159.2C 18.676 159.2 18.4 159.382 18.4 159.604C 18.4 159.826 17.86 160.572 17.2 161.263C 16.54 161.954 16 162.863 16 163.283C 16 163.703 15.82 163.936 15.6 163.8C 15.38 163.664 15.2 163.844 15.2 164.2C 15.2 164.587 15.015 164.733 14.738 164.562C 14.47 164.396 14.384 164.451 14.534 164.693C 14.675 164.922 14.523 165.332 14.196 165.604C 13.868 165.876 13.6 166.357 13.6 166.673C 13.6 166.989 13.42 167.136 13.2 167C 12.98 166.864 12.8 167.041 12.8 167.393C 12.8 167.745 12.44 168.42 12 168.892C 11.56 169.364 11.2 169.987 11.2 170.275C 11.2 170.564 11.02 170.8 10.8 170.8C 10.58 170.8 10.4 171.16 10.4 171.6C 10.4 172.04 10.241 172.4 10.047 172.4C 9.852 172.4 9.562 172.805 9.4 173.3C 9.239 173.795 9.059 174.29 9 174.4C 8.941 174.51 8.761 175.005 8.6 175.5C 8.438 175.995 8.148 176.4 7.953 176.4C 7.759 176.4 7.6 176.951 7.6 177.624C 7.6 178.337 7.433 178.744 7.2 178.6C 6.972 178.459 6.8 178.804 6.8 179.4C 6.8 179.996 6.628 180.341 6.4 180.2C 6.18 180.064 6 180.313 6 180.753C 6 181.193 5.82 181.664 5.6 181.8C 5.38 181.936 5.2 182.487 5.2 183.024C 5.2 183.561 5.02 184 4.8 184C 4.58 184 4.4 184.54 4.4 185.2C 4.4 185.86 4.22 186.4 4 186.4C 3.78 186.4 3.6 187.041 3.6 187.824C 3.6 188.607 3.458 189.16 3.285 189.052C 3.112 188.945 2.93 189.34 2.881 189.929C 2.833 190.518 2.615 191.06 2.397 191.133C 2.178 191.207 2 191.972 2 192.833C 2 193.695 1.82 194.4 1.6 194.4C 1.38 194.4 1.2 195.21 1.2 196.2C 1.2 197.37 1.025 198.002 0.7 198.006C 0.334 198.011 0.346 198.105 0.745 198.358C 1.206 198.649 1.206 198.731 0.745 198.885C -0.142 199.18 -0.029 231.687 0.86 232.237C 1.047 232.353 1.2 233.167 1.2 234.047C 1.2 235.012 1.359 235.549 1.6 235.4C 1.845 235.249 2 235.87 2 237C 2 238.13 2.155 238.751 2.4 238.6C 2.642 238.451 2.8 238.996 2.8 239.976C 2.8 240.869 2.98 241.6 3.2 241.6C 3.42 241.6 3.6 242.14 3.6 242.8C 3.6 243.46 3.78 244 4 244C 4.22 244 4.4 244.54 4.4 245.2C 4.4 245.86 4.535 246.401 4.7 246.403C 5.11 246.407 6 248.389 6 249.296C 6 249.702 6.36 250.42 6.8 250.892C 7.24 251.364 7.6 252.178 7.6 252.699C 7.6 253.221 7.76 253.549 7.955 253.428C 8.297 253.216 8.947 254.642 8.828 255.345C 8.796 255.535 9.059 255.902 9.413 256.16C 9.767 256.419 10.011 256.804 9.956 257.015C 9.819 257.542 11.27 260.4 11.674 260.4C 11.853 260.4 12 260.771 12 261.224C 12 261.677 12.167 261.944 12.372 261.817C 12.576 261.691 12.969 262.211 13.245 262.972C 13.52 263.734 13.893 264.266 14.073 264.155C 14.253 264.044 14.4 264.211 14.4 264.527C 14.4 264.843 14.674 265.33 15.01 265.608C 15.345 265.886 15.528 266.205 15.417 266.316C 15.306 266.428 15.616 266.867 16.107 267.293C 16.598 267.719 17 268.239 17 268.448C 17 268.658 17.27 269 17.6 269.208C 17.93 269.417 18.068 269.591 17.907 269.594C 17.279 269.607 21.103 273.2 21.745 273.2C 22.12 273.2 23.302 272.756 24.373 272.214C 32.057 268.32 34.466 267.955 54.019 267.715L54.019 267.715L70.637 267.511L71.127 263.456C 71.92 256.893 73.208 253.128 77.237 245.6C 77.767 244.61 78.291 243.71 78.402 243.6C 78.514 243.49 79.077 242.77 79.654 242C 84.619 235.376 97.602 227.2 103.153 227.2C 103.648 227.2 104.41 227.009 104.847 226.775C 105.933 226.194 118.234 226.215 120.453 226.802C 121.414 227.056 122.92 227.447 123.8 227.671C 124.68 227.895 125.713 228.24 126.095 228.439C 126.477 228.638 126.983 228.8 127.22 228.8C 128.534 228.8 134.614 232.203 138.4 235.059C 146.97 241.523 153.982 254.475 153.996 263.867C 154.002 267.613 153.989 267.6 157.68 267.6C 164.357 267.6 173.648 270.288 178.672 273.673C 179.592 274.293 180.46 274.8 180.601 274.8C 180.742 274.8 181.094 275.025 181.384 275.3C 182.487 276.346 183.621 277.2 183.908 277.2C 186.531 277.2 196.346 291.596 198.362 298.4C 198.59 299.17 199.022 300.61 199.322 301.6L199.322 301.6L199.867 303.4L258.797 303.496C 294.882 303.555 317.902 303.447 318.178 303.219C 318.425 303.013 320.201 302.81 322.124 302.768C 324.047 302.725 325.716 302.535 325.834 302.345C 325.951 302.155 326.926 302 328 302C 329.074 302 330.064 301.82 330.2 301.6C 330.336 301.38 331.247 301.2 332.224 301.2C 333.201 301.2 334 301.04 334 300.844C 334 300.648 334.63 300.378 335.4 300.244C 336.17 300.11 337.43 299.89 338.2 299.756C 338.97 299.622 339.6 299.352 339.6 299.156C 339.6 298.96 340.05 298.8 340.6 298.8C 341.15 298.8 341.6 298.62 341.6 298.4C 341.6 298.18 342.14 298 342.8 298C 343.46 298 344 297.82 344 297.6C 344 297.38 344.366 297.2 344.814 297.2C 345.262 297.2 346.072 296.909 346.614 296.554C 347.156 296.199 347.603 296.064 347.606 296.254C 347.609 296.444 347.744 296.42 347.906 296.2C 348.338 295.612 349.897 294.8 350.595 294.8C 350.928 294.8 351.2 294.62 351.2 294.4C 351.2 294.18 351.56 294 352 294C 352.44 294 352.8 293.82 352.8 293.6C 352.8 293.38 353.16 293.2 353.6 293.2C 354.04 293.2 354.4 293.02 354.4 292.8C 354.4 292.58 354.76 292.4 355.2 292.4C 355.64 292.4 356 292.22 356 292C 356 291.78 356.281 291.6 356.624 291.6C 356.967 291.6 357.129 291.408 356.983 291.173C 356.838 290.939 356.963 290.778 357.26 290.817C 358.022 290.916 359.6 290.366 359.6 290.002C 359.6 289.834 360.14 289.473 360.8 289.2C 361.46 288.927 362 288.545 362 288.351C 362 288.158 362.261 288 362.58 288C 362.899 288 363.344 287.685 363.568 287.3C 363.792 286.915 363.981 286.775 363.988 286.989C 363.995 287.203 364.263 287.003 364.584 286.544C 364.905 286.085 365.715 285.484 366.384 285.207C 367.498 284.745 367.759 284.29 367.707 282.9C 367.697 282.625 367.849 282.4 368.044 282.4C 368.24 282.4 368.355 282.265 368.301 282.1C 368.246 281.935 368.586 281.17 369.057 280.4C 369.528 279.63 370.522 278.01 371.266 276.8C 388.396 248.939 388.216 213.16 370.801 184.8C 361.889 170.287 342.289 153.766 329.4 149.904C 328.96 149.773 326.8 149.045 324.6 148.287C 315.756 145.241 306.771 143.6 298.938 143.6C 293.078 143.6 291.754 142.055 291.639 135.077C 291.617 133.8 291.415 131.91 291.189 130.877C 290.962 129.845 290.594 128.1 290.369 127C 289.406 122.282 287.658 116.431 286.067 112.6C 283.359 106.083 277.273 95.54 274.521 92.6C 274.109 92.16 273.483 91.384 273.13 90.874C 270.798 87.51 256.8 74.8 255.426 74.8C 255.333 74.8 254.209 74.104 252.928 73.254C 247.753 69.816 239.268 65.98 232.8 64.152C 227.199 62.57 226.713 62.453 223.8 61.993C 222.26 61.75 220.131 61.382 219.069 61.176C 216.677 60.71 201.463 60.773 198.2 61.262M165.17 69.055C 164.636 69.635 164.455 70.03 164.766 69.933C 165.293 69.768 166.713 68 166.319 68C 166.22 68 165.703 68.475 165.17 69.055M163.023 71.289C 162.68 71.778 162.4 72.024 162.4 71.835C 162.4 71.646 162.04 71.95 161.6 72.509C 160.758 73.58 160.496 75.035 161.227 74.583C 161.462 74.438 161.558 74.067 161.44 73.76C 161.314 73.431 161.477 73.2 161.836 73.2C 162.172 73.2 162.336 73.02 162.2 72.8C 162.064 72.58 162.135 72.4 162.358 72.4C 162.581 72.4 163.214 71.95 163.764 71.4C 164.41 70.754 164.566 70.4 164.204 70.4C 163.897 70.4 163.365 70.8 163.023 71.289M288.255 72.71C 288.15 72.881 288.499 73.44 289.032 73.952C 289.564 74.465 290 74.695 290 74.465C 290 74.234 289.641 73.794 289.203 73.487C 288.764 73.18 288.524 72.809 288.669 72.664C 288.814 72.519 288.824 72.4 288.69 72.4C 288.557 72.4 288.361 72.54 288.255 72.71M309.907 127.09C 310.626 127.179 311.706 127.177 312.307 127.086C 312.908 126.995 312.32 126.922 311 126.924C 309.68 126.926 309.188 127.001 309.907 127.09M212.8 168.047C 215.911 168.744 217.776 169.265 218.495 169.639C 218.877 169.838 219.383 170 219.62 170C 220.795 170 228.1 174.02 229.4 175.381C 232.265 178.383 231.219 183.651 227.374 185.583C 224.624 186.965 223.98 186.821 217.84 183.461C 216.938 182.967 215.39 182.329 214.4 182.043C 213.41 181.756 212.259 181.342 211.842 181.121C 210.729 180.533 200.043 180.601 198.161 181.208C 193.91 182.578 190.265 184.421 187.511 186.591C 185.075 188.51 180.8 193.407 180.8 194.278C 180.8 194.565 180.665 194.801 180.5 194.803C 180.141 194.807 179.2 196.744 179.2 197.48C 179.2 197.766 179.02 198 178.8 198C 178.58 198 178.4 198.439 178.4 198.976C 178.4 199.513 178.24 200.052 178.044 200.173C 177.401 200.57 177.093 203.317 177.076 208.8C 177.059 213.995 177.23 215.553 178.03 217.5C 178.234 217.995 178.58 218.85 178.8 219.4C 179.451 221.027 180.184 222.586 180.4 222.8C 180.511 222.91 180.865 223.511 181.187 224.136C 182.896 227.447 188.315 232.169 192.8 234.255C 195.241 235.39 196.119 235.686 200.246 236.768C 206.891 238.51 215.241 236.109 220.967 230.81C 225.499 226.616 228.561 226.241 231.802 229.482C 235.213 232.893 233.437 238.352 227.6 242.402C 226.83 242.937 225.965 243.602 225.677 243.881C 224.964 244.573 220.45 247.2 219.973 247.2C 219.762 247.2 219.277 247.359 218.895 247.553C 210.872 251.635 197.607 251.163 188.062 246.457C 187.106 245.986 186.071 245.6 185.762 245.6C 185.453 245.6 185.2 245.42 185.2 245.2C 185.2 244.98 184.93 244.8 184.6 244.8C 184.27 244.8 184 244.664 184 244.498C 184 244.331 183.494 243.971 182.875 243.697C 182.256 243.424 181.401 242.885 180.975 242.5C 180.548 242.115 179.569 241.322 178.8 240.738C 164.162 229.627 159.409 207.191 168.093 190.2C 170.845 184.816 177.018 177.565 180.7 175.394C 181.415 174.972 182 174.486 182 174.314C 182 174.141 182.193 174 182.428 174C 182.663 174 183.641 173.46 184.6 172.8C 185.559 172.14 186.627 171.6 186.972 171.6C 187.317 171.6 187.6 171.42 187.6 171.2C 187.6 170.98 187.872 170.8 188.205 170.8C 188.538 170.8 189.123 170.641 189.505 170.447C 194.872 167.717 206.142 166.556 212.8 168.047M289 168.285C 290.32 168.608 291.897 168.968 292.505 169.083C 293.113 169.198 293.708 169.451 293.829 169.646C 293.949 169.841 294.372 170 294.768 170C 296.108 170 302.547 173.598 306.191 176.382C 313.568 182.019 320.003 192.904 321.217 201.8C 322.069 208.039 322.092 209.473 321.416 214.149C 319.788 225.403 313.647 236.067 305.6 241.613C 304.83 242.144 303.851 242.898 303.425 243.289C 302.998 243.68 302.428 244 302.158 244C 301.888 244 301.607 244.136 301.533 244.302C 301.407 244.587 296.728 246.949 295 247.599C 294.56 247.765 293.697 248.103 293.081 248.35C 292.466 248.598 291.531 248.8 291.005 248.8C 290.478 248.8 289.952 248.953 289.836 249.141C 289.526 249.644 284.743 250.16 280.4 250.16C 276.057 250.16 271.274 249.644 270.964 249.141C 270.848 248.953 270.234 248.8 269.6 248.8C 268.966 248.8 268.336 248.62 268.2 248.4C 268.064 248.18 267.601 248 267.171 248C 266.741 248 266.077 247.84 265.695 247.644C 265.313 247.448 264.1 246.87 263 246.359C 261.9 245.849 260.248 244.929 259.328 244.316C 258.408 243.702 257.463 243.2 257.228 243.2C 256.993 243.2 256.8 243.059 256.8 242.886C 256.8 242.714 256.22 242.23 255.511 241.811C 253.37 240.546 246 232.785 246 231.796C 246 231.657 245.46 230.759 244.8 229.8C 244.14 228.841 243.6 227.773 243.6 227.428C 243.6 227.083 243.42 226.8 243.2 226.8C 242.98 226.8 242.8 226.44 242.8 226C 242.8 225.56 242.653 225.2 242.472 225.2C 242.292 225.2 241.896 224.289 241.593 223.175C 241.29 222.061 240.897 221.06 240.721 220.951C 240.544 220.842 240.4 220.144 240.4 219.4C 240.4 218.656 240.242 217.949 240.049 217.83C 239.132 217.264 238.768 206.832 239.51 202.4C 240.265 197.891 240.551 196.859 241.647 194.705C 241.841 194.323 242 193.757 242 193.446C 242 193.135 242.566 191.828 243.259 190.541C 243.951 189.253 244.716 187.796 244.959 187.303C 245.201 186.81 245.535 186.405 245.7 186.403C 245.865 186.401 246 186.222 246 186.004C 246 184.908 251.265 179.04 254.635 176.382C 256.357 175.023 259.167 173.2 259.539 173.2C 259.756 173.2 259.993 173.064 260.067 172.898C 260.335 172.292 265.749 169.844 268.4 169.131C 269.17 168.924 270.43 168.574 271.2 168.353C 275.134 167.223 284.524 167.187 289 168.285M277 180.837C 272.084 181.33 270.414 181.891 265.567 184.676C 255.173 190.65 249.675 204.721 253.133 216.503C 254.029 219.558 255.513 222.872 256.1 223.133C 256.265 223.207 256.402 223.477 256.405 223.733C 256.429 225.832 263.984 232.484 268.8 234.647C 275.416 237.619 281.252 237.932 289.056 235.732C 300.172 232.6 308.508 221.347 308.86 209C 309.154 198.664 302.219 187.675 292.6 183.235C 291.5 182.728 290.287 182.152 289.905 181.956C 289.523 181.76 288.794 181.6 288.285 181.6C 287.776 181.6 287.189 181.443 286.98 181.251C 286.442 180.757 280.326 180.503 277 180.837M349.4 195.705C 352.782 196.706 356.164 199.269 358.234 202.4C 361.579 207.458 362.105 212.058 359.995 217.8C 359.398 219.427 357.79 222.604 357.5 222.733C 357.335 222.807 357.2 223.044 357.2 223.261C 357.2 223.605 355.241 226.671 354.3 227.8C 353.286 229.016 348.006 236.647 348.003 236.9C 348.001 237.065 350.166 237.2 352.813 237.2C 358.388 237.2 359.674 237.59 361.53 239.841C 363.919 242.74 363.13 247.07 359.863 248.984L359.863 248.984L358.13 250L346.291 250C 332.252 250 331.068 249.696 329.367 245.651C 328.052 242.524 330.715 237.514 339.016 227.495C 339.337 227.108 339.6 226.704 339.6 226.599C 339.6 226.418 341.777 223.429 343.026 221.895C 343.342 221.508 343.6 221.104 343.6 220.999C 343.6 220.893 344.233 219.978 345.006 218.965C 349.696 212.821 349.335 207.829 344.2 207.829C 341.904 207.829 340.002 209.222 340 210.905C 339.999 213.319 336.802 216 333.926 216C 329.639 216 326.443 212.106 327.588 208.279C 329.586 201.608 332.629 198.329 339.4 195.55C 341.301 194.77 346.513 194.851 349.4 195.705M383.704 266.594C 383.431 266.904 383.35 267.246 383.524 267.353C 383.698 267.46 384.057 267.2 384.323 266.774C 384.88 265.883 384.442 265.756 383.704 266.594M382.122 268.974C 381.86 269.274 381.41 269.602 381.122 269.704C 380.819 269.813 380.748 270.039 380.955 270.245C 381.161 270.452 381.385 270.39 381.489 270.098C 381.588 269.821 381.797 269.674 381.954 269.772C 382.111 269.869 382.457 269.6 382.723 269.174C 383.273 268.294 382.845 268.152 382.122 268.974M379.529 271.557C 379.173 271.974 378.76 272.696 378.612 273.163C 378.464 273.63 378.175 273.908 377.971 273.782C 377.767 273.656 377.6 273.844 377.6 274.2C 377.6 274.587 377.415 274.733 377.138 274.562C 376.859 274.389 376.785 274.452 376.951 274.721C 377.254 275.211 378.4 274.924 378.4 274.357C 378.4 274.161 378.715 273.67 379.1 273.266C 380.048 272.272 380.879 270.8 380.492 270.8C 380.319 270.8 379.886 271.141 379.529 271.557M375.66 275.842C 374.931 276.666 375.4 277.057 376.181 276.276C 376.521 275.936 376.8 275.554 376.8 275.429C 376.8 275.009 376.206 275.224 375.66 275.842M373.119 278.803C 372.285 280.267 372.452 280.312 373.782 278.982C 374.929 277.835 375.018 277.599 374.3 277.603C 374.025 277.604 373.493 278.144 373.119 278.803M371.372 280.128C 371.048 280.973 371.251 281.263 371.89 280.868C 372.188 280.684 372.228 280.368 372 280.001C 371.7 279.515 371.6 279.535 371.372 280.128" stroke="none" fill="#F2F1F2" fill-rule="nonzero" />
            <path d="M199 168.484C 171.851 173.565 156.989 200.776 167.915 225.4C 168.862 227.536 171.057 231.466 171.601 232C 171.713 232.11 172.332 232.92 172.978 233.8C 182.895 247.327 204.657 253.453 219.096 246.783C 220.028 246.352 220.891 246 221.014 246C 221.458 246 227.338 241.874 228.883 240.478C 233.457 236.345 234.115 231.81 230.506 229.291C 227.66 227.304 225.163 227.879 221.499 231.367C 218.878 233.861 215.197 235.997 211.475 237.184C 209.607 237.779 200.486 237.809 198.69 237.225C 197.98 236.995 196.5 236.524 195.4 236.179C 190.158 234.535 180.4 226.723 180.4 224.17C 180.4 224.035 180.071 223.446 179.668 222.862C 178.916 221.771 177.712 218.777 176.747 215.6C 176.016 213.195 176.017 204.402 176.748 202C 178.05 197.724 180.263 192.8 180.884 192.8C 181.058 192.8 181.2 192.546 181.2 192.236C 181.2 191.511 186.272 186.402 188.54 184.841C 194.567 180.695 203.852 178.614 209.894 180.055C 213.912 181.013 216.828 182.039 218.875 183.216C 224.498 186.449 227.483 186.27 229.656 182.568C 234.206 174.816 214.223 165.636 199 168.484M274.2 168.484C 268.434 169.564 264.753 170.937 259 174.154C 253.786 177.071 246.819 184.755 243.907 190.8C 242.16 194.428 241.954 195.027 240.595 200.4C 239.8 203.549 239.669 213.695 240.389 216.412C 240.65 217.395 241.05 218.92 241.279 219.8C 243.384 227.914 249.217 236.355 256.4 241.682C 258.935 243.562 264.973 246.766 266.02 246.787C 266.361 246.794 266.811 246.961 267.02 247.157C 269.036 249.054 283.17 249.997 288.937 248.619C 311.098 243.325 324.179 223.539 320.355 201.093C 316.808 180.271 294.696 164.649 274.2 168.484M285.094 180.041C 290.946 181.393 294.815 183.096 298.2 185.81C 300.659 187.781 304.8 192.364 304.8 193.114C 304.8 193.345 304.942 193.593 305.115 193.667C 306.735 194.353 309.6 204.021 309.6 208.8C 309.6 214.23 306.773 222.868 304.126 225.529C 303.837 225.819 303.6 226.193 303.6 226.36C 303.6 228.292 294.364 234.818 289.4 236.394C 288.52 236.674 287.369 237.067 286.842 237.269C 285.434 237.808 275.445 237.73 273.689 237.166C 255.479 231.318 246.849 214.39 253.556 197.674C 257.73 187.272 268.677 179.837 280.094 179.651C 281.796 179.623 284.046 179.798 285.094 180.041" stroke="none" fill="#9B939B" fill-rule="nonzero" />
            <path d="M204.307 167.89C 205.026 167.979 206.106 167.977 206.707 167.886C 207.308 167.795 206.72 167.722 205.4 167.724C 204.08 167.726 203.588 167.801 204.307 167.89M279.3 167.887C 279.905 167.978 280.895 167.978 281.5 167.887C 282.105 167.795 281.61 167.72 280.4 167.72C 279.19 167.72 278.695 167.795 279.3 167.887M251.381 179.7L249.8 181.4L251.5 179.819C 253.081 178.348 253.384 178 253.081 178C 253.016 178 252.251 178.765 251.381 179.7M183.978 189.1L182.6 190.6L184.1 189.222C 184.925 188.463 185.6 187.788 185.6 187.722C 185.6 187.416 185.262 187.704 183.978 189.1M239.293 207.2C 239.293 207.97 239.375 208.285 239.476 207.9C 239.576 207.515 239.576 206.885 239.476 206.5C 239.375 206.115 239.293 206.43 239.293 207.2M321.32 208.8C 321.32 210.01 321.395 210.505 321.487 209.9C 321.578 209.295 321.578 208.305 321.487 207.7C 321.395 207.095 321.32 207.59 321.32 208.8M239.293 210.4C 239.293 211.17 239.375 211.485 239.476 211.1C 239.576 210.715 239.576 210.085 239.476 209.7C 239.375 209.315 239.293 209.63 239.293 210.4M110.691 226.689C 111.401 226.777 112.661 226.779 113.491 226.692C 114.321 226.605 113.74 226.533 112.2 226.531C 110.66 226.529 109.981 226.6 110.691 226.689M119.7 227.476C 120.085 227.576 120.715 227.576 121.1 227.476C 121.485 227.375 121.17 227.293 120.4 227.293C 119.63 227.293 119.315 227.375 119.7 227.476M221.385 230.9L219.4 233L221.5 231.015C 222.655 229.923 223.6 228.978 223.6 228.915C 223.6 228.617 223.229 228.949 221.385 230.9M138 235.325C 138 235.394 138.585 235.979 139.3 236.625L139.3 236.625L140.6 237.8L139.425 236.5C 138.33 235.288 138 235.016 138 235.325M82.985 238.9L81 241L83.1 239.015C 84.255 237.923 85.2 236.978 85.2 236.915C 85.2 236.617 84.829 236.949 82.985 238.9M308.175 238.9L307 240.2L308.3 239.025C 309.015 238.379 309.6 237.794 309.6 237.725C 309.6 237.416 309.27 237.688 308.175 238.9M142.8 240.125C 142.8 240.194 143.385 240.779 144.1 241.425L144.1 241.425L145.4 242.6L144.225 241.3C 143.13 240.088 142.8 239.816 142.8 240.125M94 240.633C 89.84 241.114 84.952 242.548 81.02 244.441C 79.27 245.283 78.56 245.459 78.341 245.105C 78.134 244.77 77.961 244.863 77.775 245.411C 77.146 247.26 76.585 248.4 76.302 248.4C 76.136 248.4 76 248.76 76 249.2C 76 249.64 75.82 250 75.6 250C 75.38 250 75.2 250.272 75.2 250.605C 75.2 250.938 75.02 251.568 74.8 252.005C 74.58 252.442 74.22 253.158 74 253.595C 73.78 254.032 73.6 254.741 73.6 255.171C 73.6 255.601 73.44 256.052 73.244 256.173C 72.835 256.426 72.544 257.962 71.963 262.94C 71.735 264.888 71.39 266.899 71.196 267.41L71.196 267.41L70.843 268.34L53.521 268.512C 37.296 268.672 36.019 268.737 33.332 269.535C 29.602 270.643 25.9 272.007 25.42 272.449C 25.211 272.642 24.716 272.8 24.32 272.8C 23.924 272.8 23.6 273 23.6 273.244C 23.6 273.515 23.057 273.624 22.2 273.524C 21.43 273.434 20.8 273.483 20.8 273.632C 20.8 273.781 20.26 274.127 19.6 274.4C 18.94 274.673 18.4 275.055 18.4 275.249C 18.4 275.442 18.128 275.6 17.795 275.6C 17.075 275.6 8.4 284.018 8.4 284.717C 8.4 284.983 8.22 285.2 8 285.2C 7.78 285.2 7.6 285.47 7.6 285.8C 7.6 286.13 7.42 286.4 7.2 286.4C 6.98 286.4 6.8 286.681 6.8 287.024C 6.8 287.393 6.612 287.531 6.338 287.362C 6.064 287.193 5.985 287.251 6.142 287.506C 6.288 287.742 6.136 288.207 5.804 288.539C 5.472 288.871 5.2 289.426 5.2 289.771C 5.2 290.117 5.02 290.4 4.8 290.4C 4.58 290.4 4.4 290.76 4.4 291.2C 4.4 291.64 4.22 292 4 292C 3.78 292 3.6 292.36 3.6 292.8C 3.6 293.24 3.42 293.6 3.2 293.6C 2.98 293.6 2.8 294.061 2.8 294.624C 2.8 295.204 2.627 295.54 2.4 295.4C 2.167 295.256 2 295.655 2 296.353C 2 297.013 1.82 297.664 1.6 297.8C 1.38 297.936 1.2 298.451 1.2 298.944C 1.2 299.437 0.975 300.065 0.7 300.34C -0.023 301.063 -0.023 322.459 0.7 322.7C 0.987 322.795 1.2 323.536 1.2 324.433C 1.2 325.295 1.38 326 1.6 326C 1.82 326 2 326.272 2 326.605C 2 326.938 2.18 327.568 2.4 328.005C 2.62 328.442 2.98 329.158 3.2 329.595C 3.42 330.032 3.6 330.662 3.6 330.995C 3.6 331.328 3.78 331.6 4 331.6C 4.22 331.6 4.4 331.836 4.4 332.125C 4.4 332.413 4.715 333.007 5.1 333.445C 6.1 334.582 6.8 335.888 6.8 336.618C 6.8 336.964 6.98 337.136 7.2 337C 7.42 336.864 7.6 337.033 7.6 337.376C 7.6 337.719 7.78 338 8 338C 8.22 338 8.4 338.188 8.4 338.418C 8.4 338.648 8.805 339.252 9.3 339.759C 9.795 340.267 11.236 341.788 12.502 343.141C 13.768 344.493 14.938 345.6 15.102 345.6C 15.266 345.601 15.88 346.006 16.466 346.5C 17.053 346.995 17.91 347.715 18.371 348.1C 18.832 348.485 19.387 348.8 19.605 348.8C 19.822 348.8 20 348.946 20 349.125C 20 349.304 20.622 349.695 21.382 349.993C 22.142 350.291 22.69 350.655 22.599 350.801C 22.509 350.947 22.652 351.07 22.918 351.075C 23.183 351.079 24.3 351.487 25.4 351.981C 28.246 353.26 29.22 353.641 30.493 353.975C 30.654 354.017 31.374 354.24 32.093 354.47C 35.842 355.669 38.687 355.728 99.717 355.867C 147.524 355.977 162.24 355.898 162.917 355.532C 163.403 355.269 164.457 355.099 165.259 355.154C 166.062 355.21 166.838 355.063 166.983 354.828C 167.128 354.592 167.676 354.4 168.2 354.4C 168.724 354.4 169.264 354.22 169.4 354C 169.536 353.78 170.177 353.6 170.824 353.6C 171.471 353.6 172 353.42 172 353.2C 172 352.98 172.45 352.8 173 352.8C 173.55 352.8 174 352.62 174 352.4C 174 352.18 174.371 352 174.824 352C 175.277 352 175.536 351.82 175.4 351.6C 175.264 351.38 175.435 351.2 175.781 351.2C 177.056 351.2 179.978 349.416 179.989 348.63C 179.995 348.206 180.622 346.586 181.383 345.03C 186.413 334.736 187.514 320.845 184.016 311.8C 180.645 303.081 175.703 295.866 170.152 291.557C 166.173 288.468 161.483 285.869 156.6 284.046C 154.325 283.197 148.195 282.017 146 282.006C 140.862 281.981 140.376 281.508 139.625 275.8C 138.149 264.58 132.114 254.695 122.6 247.913C 118.257 244.818 115.212 243.468 107.326 241.143C 105.951 240.737 96.292 240.368 94 240.633M276.9 249.876C 277.285 249.976 277.915 249.976 278.3 249.876C 278.685 249.775 278.37 249.693 277.6 249.693C 276.83 249.693 276.515 249.775 276.9 249.876M153.72 265.6C 153.72 266.81 153.795 267.305 153.887 266.7C 153.978 266.095 153.978 265.105 153.887 264.5C 153.795 263.895 153.72 264.39 153.72 265.6M158.433 268.144C 158.525 268.224 159.68 268.389 161 268.512C 162.491 268.651 163.021 268.611 162.4 268.407C 161.412 268.084 158.111 267.865 158.433 268.144M182.833 277.3C 182.925 277.355 183.54 277.85 184.2 278.4L184.2 278.4L185.4 279.4L184.43 278.3C 183.897 277.695 183.282 277.2 183.064 277.2C 182.845 277.2 182.742 277.245 182.833 277.3M185.633 279.7C 185.725 279.755 186.34 280.25 187 280.8L187 280.8L188.2 281.8L187.23 280.7C 186.697 280.095 186.082 279.6 185.864 279.6C 185.645 279.6 185.542 279.645 185.633 279.7M188 282.125C 188 282.194 188.585 282.779 189.3 283.425L189.3 283.425L190.6 284.6L189.425 283.3C 188.33 282.088 188 281.816 188 282.125" stroke="none" fill="#CBC3CB" fill-rule="nonzero" />
            <path d="M341.274 195.652C 330.99 197.341 323.855 210.509 330.896 214.802C 334.17 216.798 338.099 215.116 339.415 211.154C 341.037 206.271 346.747 205.704 348.641 210.237C 349.815 213.047 347.864 216.329 333.8 235.2C 328.965 241.689 328.471 243.399 330.482 246.71C 332.017 249.237 332.68 249.376 343.995 249.532C 360.058 249.754 362.4 249.047 362.4 243.98C 362.4 239.085 359.995 237.6 352.072 237.6C 349.392 237.6 347.2 237.44 347.2 237.245C 347.2 237.049 349.367 233.862 352.016 230.161C 361.052 217.537 362.588 212.028 359.089 204.8C 355.836 198.082 348.721 194.428 341.274 195.652" stroke="none" fill="#F69EA6" fill-rule="nonzero" />
            <path d="M307.2 178.2C 307.946 178.97 308.647 179.6 308.757 179.6C 308.867 179.6 308.346 178.97 307.6 178.2C 306.854 177.43 306.153 176.8 306.043 176.8C 305.933 176.8 306.454 177.43 307.2 178.2M251.588 179.9L249 182.6L251.7 180.012C 253.185 178.588 254.4 177.373 254.4 177.312C 254.4 177.017 253.993 177.392 251.588 179.9M202.3 179.882C 202.795 179.978 203.605 179.978 204.1 179.882C 204.595 179.787 204.19 179.709 203.2 179.709C 202.21 179.709 201.805 179.787 202.3 179.882M206.105 179.887C 206.714 179.979 207.614 179.977 208.105 179.882C 208.597 179.787 208.1 179.711 207 179.714C 205.9 179.717 205.497 179.795 206.105 179.887M278.5 179.894C 279.545 179.976 281.255 179.976 282.3 179.894C 283.345 179.812 282.49 179.744 280.4 179.744C 278.31 179.744 277.455 179.812 278.5 179.894M310 180.925C 310 180.994 310.585 181.579 311.3 182.225L311.3 182.225L312.6 183.4L311.425 182.1C 310.33 180.888 310 180.616 310 180.925M320.909 204.8C 320.909 205.79 320.987 206.195 321.082 205.7C 321.178 205.205 321.178 204.395 321.082 203.9C 320.987 203.405 320.909 203.81 320.909 204.8M239.714 205.8C 239.717 206.9 239.795 207.303 239.887 206.695C 239.979 206.086 239.977 205.186 239.882 204.695C 239.787 204.203 239.711 204.7 239.714 205.8M309.344 208.8C 309.344 210.89 309.412 211.745 309.494 210.7C 309.576 209.655 309.576 207.945 309.494 206.9C 309.412 205.855 309.344 206.71 309.344 208.8M164.128 208.8C 164.128 210.23 164.201 210.815 164.289 210.1C 164.378 209.385 164.378 208.215 164.289 207.5C 164.201 206.785 164.128 207.37 164.128 208.8M239.714 211.8C 239.717 212.9 239.795 213.303 239.887 212.695C 239.979 212.086 239.977 211.186 239.882 210.695C 239.787 210.203 239.711 210.7 239.714 211.8M320.909 212.8C 320.909 213.79 320.987 214.195 321.082 213.7C 321.178 213.205 321.178 212.395 321.082 211.9C 320.987 211.405 320.909 211.81 320.909 212.8M240.056 216C 240.056 216.33 240.211 216.96 240.4 217.4C 240.617 217.904 240.744 217.978 240.744 217.6C 240.744 217.27 240.589 216.64 240.4 216.2C 240.183 215.696 240.056 215.622 240.056 216M107.6 227.182C 107.27 227.405 106.156 227.591 105.124 227.594C 104.092 227.597 103.136 227.78 103 228C 102.864 228.22 102.234 228.4 101.6 228.4C 100.966 228.4 100.336 228.58 100.2 228.8C 100.064 229.02 99.62 229.2 99.214 229.2C 98.528 229.2 97.54 229.628 93.4 231.72C 88.76 234.066 79.2 242.456 79.2 244.184C 79.2 244.486 79.016 244.825 78.79 244.937C 78.565 245.049 78.519 245.104 78.69 245.06C 78.861 245.016 80.08 244.471 81.4 243.849C 82.72 243.226 84.16 242.556 84.6 242.358C 91.133 239.428 106.306 239.434 113 242.369C 113.44 242.562 114.653 243.098 115.696 243.56C 116.738 244.022 117.696 244.4 117.824 244.4C 117.951 244.4 118.841 244.94 119.8 245.6C 120.759 246.26 121.661 246.8 121.804 246.8C 124.732 246.8 137.6 262.823 137.6 266.469C 137.6 266.783 137.749 267.211 137.93 267.42C 138.561 268.145 139.838 273.432 140.199 276.808C 140.631 280.854 140.678 280.89 146.608 281.646C 154.599 282.664 158.977 284.071 164.855 287.511C 184.336 298.911 191.902 323.726 182.158 344.262C 181.411 345.835 180.8 347.32 180.8 347.562C 180.8 348.122 181.488 348.135 181.674 347.578C 181.751 347.346 182.081 347.095 182.407 347.019C 184.397 346.559 184.857 346.259 184.67 345.545C 184.545 345.069 184.686 344.8 185.061 344.8C 185.383 344.8 185.536 344.62 185.4 344.4C 185.259 344.172 185.61 344 186.219 344C 186.992 344 187.224 343.839 187.06 343.413C 186.936 343.09 186.992 342.729 187.183 342.61C 187.375 342.492 187.623 342.621 187.734 342.898C 187.846 343.174 187.951 343.023 187.968 342.561C 188.004 341.604 189.47 339.736 189.87 340.137C 190.347 340.614 191.6 339.1 191.606 338.038C 191.611 337.221 191.695 337.128 192 337.6C 192.329 338.109 192.389 338.09 192.394 337.476C 192.397 337.078 192.58 336.864 192.8 337C 193.02 337.136 193.2 336.877 193.2 336.424C 193.2 335.971 193.358 335.6 193.551 335.6C 193.745 335.6 194.127 335.06 194.4 334.4C 194.673 333.74 195.055 333.2 195.249 333.2C 195.442 333.2 195.6 332.84 195.6 332.4C 195.6 331.96 195.78 331.6 196 331.6C 196.22 331.6 196.4 331.251 196.4 330.824C 196.4 330.397 196.58 329.936 196.8 329.8C 197.02 329.664 197.2 329.203 197.2 328.776C 197.2 328.349 197.38 328 197.6 328C 197.82 328 198 327.638 198 327.195C 198 326.752 198.158 326.077 198.351 325.695C 199.018 324.374 199.6 322.138 199.6 320.895C 199.6 320.209 199.78 319.536 200 319.4C 201.003 318.78 200.481 304.216 199.421 303.219C 198.882 302.714 198.321 301.737 198.174 301.05C 197.848 299.526 196.913 296.557 196.331 295.2C 195.6 293.497 193.496 289.411 193.242 289.2C 193.109 289.09 192.73 288.523 192.4 287.94C 190.836 285.178 185.376 279.31 182.2 276.979C 181.32 276.333 180.51 275.714 180.4 275.602C 177.371 272.538 166.004 268.937 157.8 268.442L157.8 268.442L153.8 268.2L153.537 266C 153.393 264.79 153.142 262.67 152.981 261.289C 152.819 259.907 152.532 258.682 152.343 258.565C 152.155 258.448 152 257.922 152 257.395C 152 256.869 151.798 255.934 151.55 255.319C 151.303 254.703 150.977 253.84 150.827 253.4C 150.399 252.145 147.047 245.541 146.587 245.045C 146.36 244.8 145.741 243.97 145.213 243.2C 141.666 238.032 134.106 232.409 126.8 229.504C 126.25 229.286 125.487 228.948 125.105 228.753C 124.723 228.559 123.904 228.4 123.285 228.4C 122.666 228.4 121.989 228.237 121.78 228.039C 120.925 227.226 108.633 226.483 107.6 227.182M184.4 229.4C 185.146 230.17 185.847 230.8 185.957 230.8C 186.067 230.8 185.546 230.17 184.8 229.4C 184.054 228.63 183.353 228 183.243 228C 183.133 228 183.654 228.63 184.4 229.4M221.178 231.5L219.8 233L221.3 231.622C 222.125 230.863 222.8 230.188 222.8 230.122C 222.8 229.816 222.462 230.104 221.178 231.5M251.4 237.6C 252.928 239.14 254.269 240.4 254.379 240.4C 254.489 240.4 253.328 239.14 251.8 237.6C 250.272 236.06 248.931 234.8 248.821 234.8C 248.711 234.8 249.872 236.06 251.4 237.6M201.105 249.483C 201.602 249.579 202.322 249.575 202.705 249.475C 203.087 249.375 202.68 249.296 201.8 249.301C 200.92 249.305 200.607 249.387 201.105 249.483M207.7 249.476C 208.085 249.576 208.715 249.576 209.1 249.476C 209.485 249.375 209.17 249.293 208.4 249.293C 207.63 249.293 207.315 249.375 207.7 249.476M276.705 249.483C 277.202 249.579 277.922 249.575 278.305 249.475C 278.687 249.375 278.28 249.296 277.4 249.301C 276.52 249.305 276.207 249.387 276.705 249.483M282.7 249.482C 283.195 249.578 284.005 249.578 284.5 249.482C 284.995 249.387 284.59 249.309 283.6 249.309C 282.61 249.309 282.205 249.387 282.7 249.482" stroke="none" fill="#B4B4BA" fill-rule="nonzero" />
            <path d="M339.6 195.603C 339.19 195.87 339.635 195.914 341 195.741C 342.1 195.601 343.075 195.423 343.167 195.344C 343.564 195.001 340.141 195.25 339.6 195.603M344.833 195.344C 344.925 195.423 345.99 195.599 347.2 195.734C 348.67 195.898 349.201 195.852 348.8 195.596C 348.256 195.248 344.442 195.006 344.833 195.344M351.542 197.065C 361.232 201.752 363.357 212.896 356.601 223.598C 356.045 224.479 355.742 225.2 355.928 225.2C 357.221 225.2 361.189 214.93 361.196 211.566C 361.208 205.289 354.469 195.91 350.022 196.015C 349.68 196.023 350.364 196.495 351.542 197.065M334.4 198.152C 333.41 198.885 332.24 199.901 331.8 200.409C 331.36 200.918 332.006 200.539 333.236 199.567C 334.466 198.595 335.816 197.586 336.236 197.324C 336.656 197.061 336.82 196.841 336.6 196.833C 336.38 196.826 335.39 197.419 334.4 198.152M329.27 204.1C 328.606 205.475 327.901 207.32 327.703 208.2C 326.063 215.479 336.012 219.135 339.24 212.44C 339.727 211.428 340.352 210.15 340.627 209.6C 342.463 205.932 348.351 207.594 348.423 211.8C 348.447 213.191 348.499 213.28 348.821 212.477C 349.727 210.218 347.071 207.2 344.177 207.2C 341.924 207.2 340.273 208.571 339.415 211.154C 337.694 216.337 331.559 217.232 328.798 212.704C 327.437 210.472 328.169 205.933 330.394 202.808C 330.867 202.144 331.079 201.6 330.865 201.6C 330.652 201.6 329.934 202.725 329.27 204.1M347.358 215.068C 346.42 217.094 343.186 221.829 337.162 230C 335.458 232.31 333.078 235.538 331.872 237.174C 328.342 241.961 328.005 245.122 330.742 247.745C 332.965 249.873 333.831 250 346.161 250C 359.193 250 360.41 249.745 362.067 246.67C 362.283 246.268 361.743 246.657 360.866 247.534C 358.821 249.579 357.629 249.72 343.995 249.532C 332.68 249.376 332.017 249.237 330.482 246.71C 328.471 243.399 328.965 241.689 333.8 235.2C 341.789 224.481 345.607 219.085 347.204 216.254C 347.915 214.994 348.4 213.867 348.283 213.749C 348.165 213.631 347.749 214.225 347.358 215.068M351.466 230.918C 347.56 236.358 346.82 237.6 347.491 237.6C 347.697 237.6 347.867 237.375 347.868 237.1C 347.869 236.641 353.655 228.321 355.102 226.698C 355.447 226.311 355.633 225.9 355.517 225.784C 355.401 225.667 353.578 227.978 351.466 230.918M358 237.962C 358.33 238.196 358.851 238.391 359.157 238.394C 359.933 238.402 361.935 240.579 362.182 241.684C 362.295 242.188 362.449 243.32 362.526 244.2C 362.66 245.735 362.668 245.722 362.733 243.88C 362.837 240.905 361.095 238.342 358.6 237.797C 357.69 237.599 357.545 237.638 358 237.962" stroke="none" fill="#E4C8CF" fill-rule="nonzero" />
            <path d="M176.493 207.2C 176.493 207.97 176.575 208.285 176.676 207.9C 176.776 207.515 176.776 206.885 176.676 206.5C 176.575 206.115 176.493 206.43 176.493 207.2M176.493 210.4C 176.493 211.17 176.575 211.485 176.676 211.1C 176.776 210.715 176.776 210.085 176.676 209.7C 176.575 209.315 176.493 209.63 176.493 210.4M115.3 226.676C 115.685 226.776 116.315 226.776 116.7 226.676C 117.085 226.575 116.77 226.493 116 226.493C 115.23 226.493 114.915 226.575 115.3 226.676M203.511 237.493C 204.451 237.578 205.891 237.577 206.711 237.491C 207.53 237.405 206.76 237.336 205 237.337C 203.24 237.339 202.57 237.409 203.511 237.493M279.111 237.493C 280.051 237.578 281.491 237.577 282.311 237.491C 283.13 237.405 282.36 237.336 280.6 237.337C 278.84 237.339 278.17 237.409 279.111 237.493M71.385 264.185C 71.23 265.423 71.19 266.523 71.295 266.629C 71.401 266.734 71.607 265.801 71.754 264.554C 71.9 263.307 71.941 262.207 71.843 262.11C 71.746 262.012 71.539 262.946 71.385 264.185M46.873 268.299C 51.204 268.364 58.404 268.364 62.873 268.3C 67.343 268.235 63.8 268.182 55 268.182C 46.2 268.182 42.543 268.235 46.873 268.299M33.8 269.2C 33.296 269.417 33.222 269.544 33.6 269.544C 33.93 269.544 34.56 269.389 35 269.2C 35.504 268.983 35.578 268.856 35.2 268.856C 34.87 268.856 34.24 269.011 33.8 269.2" stroke="none" fill="#D9D4D4" fill-rule="nonzero" />
            <path d="M217.081 44.252C 216.944 44.389 216.33 44.555 215.716 44.621C 215.102 44.686 213.698 44.832 212.597 44.945C 211.495 45.058 210.325 45.248 209.997 45.367C 209.668 45.485 208.77 45.661 208 45.758C 206.326 45.968 201.724 47.114 200.6 47.601C 200.16 47.791 199.08 48.164 198.2 48.429C 197.32 48.694 196.24 49.043 195.8 49.205C 194.003 49.865 187.508 52.878 187.2 53.195C 186.737 53.67 185.166 54.4 184.605 54.4C 184.272 54.4 184 54.536 184 54.702C 184 54.869 183.415 55.259 182.7 55.57C 181.985 55.881 181.31 56.254 181.2 56.398C 181.09 56.542 179.83 57.448 178.4 58.41C 176.97 59.373 175.35 60.576 174.8 61.084C 174.25 61.593 173.485 62.109 173.1 62.231C 172.715 62.354 172.4 62.652 172.4 62.894C 172.4 63.135 172.291 63.224 172.158 63.091C 172.024 62.958 171.519 63.243 171.034 63.724C 170.55 64.206 169.494 65.123 168.688 65.763C 167.883 66.402 166.766 67.617 166.206 68.463C 165.646 69.308 164.876 70.014 164.494 70.032C 164.112 70.049 164.008 70.148 164.261 70.252C 164.769 70.46 163.05 72.4 162.358 72.4C 162.135 72.4 162.064 72.58 162.2 72.8C 162.336 73.02 162.187 73.2 161.868 73.2C 161.55 73.2 161.314 73.511 161.344 73.89C 161.375 74.27 161.175 74.608 160.9 74.64C 159.867 74.764 159.815 74.822 160.4 75.2C 161.254 75.752 161.147 75.794 164.496 73.617C 170.355 69.809 178.745 65.973 185.2 64.151C 191.426 62.394 193.1 62.03 198.677 61.218C 202.255 60.698 216.462 60.668 219.069 61.176C 220.131 61.382 222.26 61.75 223.8 61.993C 226.713 62.453 227.199 62.57 232.8 64.152C 239.268 65.98 247.753 69.816 252.928 73.254C 254.209 74.104 255.333 74.8 255.426 74.8C 256.8 74.8 270.798 87.51 273.13 90.874C 273.483 91.384 274.109 92.16 274.521 92.6C 277.273 95.54 283.359 106.083 286.067 112.6C 287.658 116.431 289.406 122.282 290.369 127C 290.594 128.1 290.962 129.845 291.189 130.877C 291.415 131.91 291.617 133.8 291.639 135.077C 291.754 142.055 293.078 143.6 298.938 143.6C 306.771 143.6 315.756 145.241 324.6 148.287C 326.8 149.045 328.96 149.773 329.4 149.904C 333.362 151.092 345.977 158.488 351.198 162.686C 385.409 190.189 394.107 239.651 371.266 276.8C 370.522 278.01 369.528 279.63 369.057 280.4C 368.586 281.17 368.246 281.935 368.301 282.1C 368.355 282.265 368.259 282.4 368.086 282.4C 367.913 282.4 367.771 282.744 367.771 283.164C 367.771 283.826 367.93 283.772 368.962 282.764C 369.616 282.124 370.388 281.6 370.676 281.6C 370.964 281.6 371.2 281.251 371.2 280.824C 371.2 279.944 371.854 279.362 372.08 280.04C 372.162 280.285 372.578 279.836 373.005 279.042C 373.448 278.221 374.087 277.6 374.491 277.6C 374.881 277.6 375.2 277.317 375.2 276.971C 375.2 276.243 375.899 275.469 376.9 275.09C 377.285 274.944 377.6 274.539 377.6 274.189C 377.6 273.839 377.767 273.656 377.971 273.782C 378.175 273.908 378.464 273.63 378.612 273.163C 379.025 271.862 380.089 270.801 380.989 270.794C 381.671 270.789 381.705 270.72 381.2 270.363C 380.727 270.029 380.711 269.894 381.123 269.729C 381.947 269.397 383.635 267.58 383.429 267.247C 383.327 267.081 383.593 266.693 384.021 266.385C 384.45 266.076 384.8 265.599 384.8 265.326C 384.8 265.052 385.166 264.632 385.613 264.393C 386.06 264.154 386.376 263.743 386.315 263.479C 386.255 263.216 386.384 262.942 386.603 262.872C 387.101 262.71 387.601 261.832 387.809 260.752C 387.897 260.295 388.302 259.623 388.708 259.26C 389.591 258.47 392.6 252.629 391.901 253.061C 391.634 253.226 391.816 252.851 392.307 252.227C 392.798 251.603 393.2 250.767 393.2 250.37C 393.2 249.972 393.38 249.536 393.6 249.4C 393.82 249.264 394 248.803 394 248.376C 394 247.949 394.18 247.6 394.4 247.6C 394.62 247.6 394.8 247.18 394.8 246.667C 394.8 246.153 394.923 245.61 395.074 245.459C 395.473 245.061 396.387 242.318 396.394 241.5C 396.397 241.115 396.58 240.8 396.8 240.8C 397.02 240.8 397.2 240.26 397.2 239.6C 397.2 238.94 397.362 238.4 397.56 238.4C 397.758 238.4 398.014 237.635 398.131 236.7C 398.247 235.765 398.544 234.1 398.792 233C 399.04 231.9 399.403 229.83 399.601 228.4C 400.069 224.999 400.056 205.4 399.582 201.8C 398.881 196.473 398.714 195.594 398.358 195.374C 398.161 195.252 398 194.544 398 193.8C 398 193.056 397.82 192.336 397.6 192.2C 397.38 192.064 397.2 191.344 397.2 190.6C 397.2 189.856 397.02 189.136 396.8 189C 396.58 188.864 396.4 188.324 396.4 187.8C 396.4 187.276 396.22 186.736 396 186.6C 395.78 186.464 395.6 185.913 395.6 185.376C 395.6 184.839 395.42 184.4 395.2 184.4C 394.98 184.4 394.8 183.939 394.8 183.376C 394.8 182.796 394.627 182.46 394.4 182.6C 394.167 182.744 394 182.337 394 181.624C 394 180.951 393.82 180.4 393.6 180.4C 393.38 180.4 393.2 180.04 393.2 179.6C 393.2 179.16 393.02 178.8 392.8 178.8C 392.58 178.8 392.4 178.44 392.4 178C 392.4 177.56 392.22 177.2 392 177.2C 391.78 177.2 391.6 176.966 391.6 176.68C 391.6 175.92 390.654 174.007 390.276 174.003C 390.098 174.001 390.055 173.835 390.18 173.632C 390.305 173.43 390.144 173.001 389.823 172.68C 389.501 172.358 389.35 171.984 389.486 171.848C 389.622 171.711 389.513 171.6 389.243 171.6C 388.973 171.6 388.851 171.44 388.972 171.245C 389.093 171.05 388.923 170.668 388.596 170.396C 388.268 170.124 388 169.725 388 169.509C 388 169.293 387.46 168.316 386.8 167.338C 386.14 166.36 385.6 165.389 385.6 165.18C 385.6 164.971 385.45 164.8 385.268 164.8C 385.085 164.8 384.698 164.356 384.407 163.814C 384.117 163.271 383.699 162.939 383.478 163.075C 383.253 163.215 383.2 163.124 383.358 162.868C 383.519 162.607 383.032 161.854 382.22 161.109C 381.439 160.392 380.8 159.581 380.8 159.306C 380.8 159.032 380.44 158.582 380 158.307C 379.56 158.032 379.2 157.658 379.2 157.475C 379.2 156.956 378.124 156.009 377.848 156.286C 377.711 156.422 377.6 156.311 377.6 156.04C 377.6 155.516 371.577 149.418 369.066 147.4C 368.245 146.74 366.999 145.705 366.298 145.1C 365.596 144.495 364.91 144 364.773 144C 364.636 144 364.001 143.55 363.362 143C 362.723 142.451 361.975 142.001 361.7 142C 361.425 142 361.2 141.82 361.2 141.6C 361.2 141.38 360.93 141.2 360.6 141.2C 360.27 141.2 360 141.02 360 140.8C 360 140.58 359.73 140.4 359.4 140.4C 359.07 140.4 358.8 140.22 358.8 140C 358.8 139.78 358.517 139.6 358.171 139.6C 357.826 139.6 357.271 139.328 356.939 138.996C 356.607 138.664 356.17 138.495 355.968 138.62C 355.765 138.745 355.6 138.657 355.6 138.424C 355.6 138.191 355.412 138 355.183 138C 354.954 138 354.409 137.667 353.973 137.261C 353.536 136.854 352.464 136.285 351.59 135.997C 350.715 135.708 350 135.321 350 135.136C 350 134.951 349.55 134.8 349 134.8C 348.45 134.8 348 134.62 348 134.4C 348 134.18 347.64 134 347.2 134C 346.76 134 346.4 133.854 346.4 133.676C 346.4 133.497 345.5 133.121 344.4 132.839C 343.3 132.557 342.4 132.163 342.4 131.963C 342.4 131.763 341.86 131.6 341.2 131.6C 340.54 131.6 340 131.422 340 131.204C 340 130.987 339.595 130.821 339.1 130.836C 338.605 130.851 337.137 130.489 335.838 130.032C 334.539 129.574 332.884 129.2 332.162 129.2C 331.439 129.2 330.748 129.039 330.626 128.842C 330.505 128.645 329.729 128.391 328.903 128.277C 328.076 128.163 326.77 127.97 326 127.849C 321.678 127.169 315.828 126.824 312.545 127.055L312.545 127.055L308.8 127.318L308.8 124.926C 308.8 123.61 308.665 122.398 308.5 122.233C 308.335 122.068 308.181 121.003 308.158 119.867C 308.078 115.895 307.998 115.154 307.669 115.357C 307.487 115.47 307.363 114.805 307.394 113.881C 307.424 112.956 307.282 111.75 307.077 111.2C 306.873 110.65 306.635 109.662 306.55 109.005C 306.464 108.347 306.27 107.447 306.118 107.005C 305.967 106.562 305.889 105.962 305.946 105.67C 306.002 105.379 305.868 104.923 305.648 104.658C 305.428 104.392 305.162 103.702 305.057 103.123C 304.952 102.544 304.665 101.694 304.419 101.235C 304.173 100.776 304.104 100.4 304.266 100.4C 304.428 100.4 304.344 100.184 304.08 99.92C 303.816 99.656 303.6 99.026 303.6 98.52C 303.6 98.014 303.42 97.6 303.2 97.6C 302.98 97.6 302.8 97.24 302.8 96.8C 302.8 96.36 302.609 96 302.376 96C 302.143 96 302.044 95.852 302.156 95.671C 302.268 95.491 302.098 94.84 301.78 94.226C 301.461 93.611 301.2 92.859 301.2 92.554C 301.2 92.249 301.02 92 300.8 92C 300.58 92 300.4 91.64 300.4 91.2C 300.4 90.76 300.22 90.4 300 90.4C 299.78 90.4 299.6 90.04 299.6 89.6C 299.6 89.16 299.42 88.8 299.2 88.8C 298.98 88.8 298.8 88.44 298.8 88C 298.8 87.56 298.632 87.2 298.426 87.2C 298.22 87.2 297.824 86.57 297.546 85.8C 297.267 85.03 296.895 84.4 296.72 84.4C 296.544 84.4 296.4 84.13 296.4 83.8C 296.4 83.47 296.22 83.2 296 83.2C 295.78 83.2 295.6 82.97 295.6 82.688C 295.6 82.407 295.24 81.917 294.8 81.6C 294.36 81.283 294 80.703 294 80.312C 294 79.92 293.859 79.6 293.686 79.6C 293.514 79.6 293.029 79.015 292.609 78.3C 292.188 77.585 290.954 76.055 289.864 74.9C 288.775 73.745 288.007 72.8 288.158 72.8C 288.309 72.8 287.975 72.307 287.416 71.704C 286.857 71.101 286.4 70.471 286.4 70.304C 286.4 70.137 286.119 70 285.776 70C 285.433 70 285.264 69.82 285.4 69.6C 285.536 69.38 285.487 69.2 285.291 69.2C 285.095 69.2 283.856 68.165 282.539 66.9C 281.222 65.635 279.468 64.06 278.642 63.4C 277.816 62.74 276.838 61.924 276.47 61.588C 276.101 61.251 275.305 60.726 274.7 60.42C 274.095 60.115 273.6 59.715 273.6 59.532C 273.6 59.35 273.33 59.2 273 59.2C 272.67 59.2 272.4 59.05 272.4 58.868C 272.4 58.685 271.905 58.28 271.3 57.968C 270.695 57.655 269.851 57.085 269.425 56.7C 268.998 56.315 268.413 56 268.125 56C 267.836 56 267.6 55.82 267.6 55.6C 267.6 55.38 267.21 55.2 266.733 55.2C 266.257 55.2 265.984 55.083 266.127 54.939C 266.271 54.796 265.086 54.058 263.494 53.3C 261.902 52.542 260.13 51.674 259.556 51.371C 258.982 51.069 258.397 50.936 258.256 51.077C 258.115 51.218 258 51.123 258 50.867C 258 50.61 257.752 50.4 257.449 50.4C 257.146 50.4 256.201 50.098 255.349 49.73C 254.497 49.361 253.448 48.996 253.017 48.919C 252.587 48.843 252.137 48.649 252.017 48.49C 251.786 48.181 251.048 47.969 249.904 47.883C 249.517 47.854 249.2 47.688 249.2 47.515C 249.2 47.342 249.065 47.236 248.9 47.279C 248.735 47.322 246.53 46.848 244 46.226C 241.47 45.603 238.5 45.039 237.4 44.973C 236.3 44.906 234.95 44.721 234.4 44.561C 233.142 44.195 217.418 43.915 217.081 44.252zM204.305 167.483C 204.802 167.579 205.522 167.575 205.905 167.475C 206.287 167.375 205.88 167.296 205 167.301C 204.12 167.305 203.807 167.387 204.305 167.483zM279.7 167.476C 280.085 167.576 280.715 167.576 281.1 167.476C 281.485 167.375 281.17 167.293 280.4 167.293C 279.63 167.293 279.315 167.375 279.7 167.476zM199.105 167.883C 199.602 167.979 200.322 167.975 200.705 167.875C 201.087 167.775 200.68 167.696 199.8 167.701C 198.92 167.705 198.607 167.787 199.105 167.883zM209.5 167.882C 209.995 167.978 210.805 167.978 211.3 167.882C 211.795 167.787 211.39 167.709 210.4 167.709C 209.41 167.709 209.005 167.787 209.5 167.882zM274.3 167.882C 274.795 167.978 275.605 167.978 276.1 167.882C 276.595 167.787 276.19 167.709 275.2 167.709C 274.21 167.709 273.805 167.787 274.3 167.882zM284.7 167.882C 285.195 167.978 286.005 167.978 286.5 167.882C 286.995 167.787 286.59 167.709 285.6 167.709C 284.61 167.709 284.205 167.787 284.7 167.882zM250.788 179.9L248.2 182.6L250.9 180.012C 252.385 178.588 253.6 177.373 253.6 177.312C 253.6 177.017 253.193 177.392 250.788 179.9zM309.4 179.6C 310.706 180.92 311.865 182 311.975 182C 312.085 182 311.106 180.92 309.8 179.6C 308.494 178.28 307.335 177.2 307.225 177.2C 307.115 177.2 308.094 178.28 309.4 179.6zM202.4 180.362C 201.164 180.542 202.012 180.634 205.111 180.656C 207.592 180.674 209.572 180.645 209.511 180.593C 209.178 180.309 203.938 180.138 202.4 180.362zM278 180.4L276.2 180.68L277.8 180.7C 278.68 180.711 279.85 180.576 280.4 180.4C 281.663 179.995 280.602 179.995 278 180.4zM282.3 180.682C 282.795 180.778 283.605 180.778 284.1 180.682C 284.595 180.587 284.19 180.509 283.2 180.509C 282.21 180.509 281.805 180.587 282.3 180.682zM296.4 185.311C 296.4 185.387 296.985 185.878 297.7 186.401C 298.504 186.99 298.784 187.087 298.433 186.655C 297.9 185.999 296.4 185.007 296.4 185.311zM223.905 186.283C 224.402 186.379 225.122 186.375 225.505 186.275C 225.887 186.175 225.48 186.096 224.6 186.101C 223.72 186.105 223.407 186.187 223.905 186.283zM184.8 188.6C 183.828 189.59 183.123 190.4 183.233 190.4C 183.343 190.4 184.228 189.59 185.2 188.6C 186.172 187.61 186.877 186.8 186.767 186.8C 186.657 186.8 185.772 187.61 184.8 188.6zM320.468 199C 320.462 199.44 320.611 200.16 320.8 200.6C 321.238 201.619 321.238 200.568 320.8 199.2C 320.543 198.396 320.477 198.357 320.468 199zM308.487 205.6C 308.491 206.15 308.632 207.14 308.8 207.8L308.8 207.8L309.105 209L309.113 207.8C 309.117 207.14 308.976 206.15 308.8 205.6L308.8 205.6L308.48 204.6L308.487 205.6zM238.944 208.8C 238.944 210.89 239.012 211.745 239.094 210.7C 239.176 209.655 239.176 207.945 239.094 206.9C 239.012 205.855 238.944 206.71 238.944 208.8M321.734 208.8C 321.734 210.45 321.805 211.125 321.891 210.3C 321.978 209.475 321.978 208.125 321.891 207.3C 321.805 206.475 321.734 207.15 321.734 208.8M163.72 208.8C 163.72 210.01 163.795 210.505 163.887 209.9C 163.978 209.295 163.978 208.305 163.887 207.7C 163.795 207.095 163.72 207.59 163.72 208.8M251.693 208.8C 251.693 209.57 251.775 209.885 251.876 209.5C 251.976 209.115 251.976 208.485 251.876 208.1C 251.775 207.715 251.693 208.03 251.693 208.8M308.6 210.8C 308.446 211.71 308.411 212.544 308.521 212.654C 308.631 212.764 308.846 212.11 309 211.2C 309.154 210.29 309.189 209.456 309.079 209.346C 308.969 209.236 308.754 209.89 308.6 210.8M165.044 219.8C 165.373 221.271 165.602 221.59 165.594 220.567C 165.591 220.145 165.405 219.53 165.182 219.2C 164.885 218.762 164.848 218.924 165.044 219.8M166.618 224.5C 166.768 224.995 167.055 225.576 167.256 225.791C 167.457 226.006 167.419 225.601 167.172 224.891C 166.665 223.438 166.197 223.108 166.618 224.5M317.665 226.217C 316.995 227.688 317.123 228.002 317.847 226.665C 318.186 226.04 318.388 225.454 318.296 225.363C 318.205 225.271 317.921 225.656 317.665 226.217M104.8 226.821C 104.37 227.114 104.654 227.154 105.8 226.962C 107.784 226.63 108.104 226.398 106.567 226.406C 105.925 226.409 105.13 226.596 104.8 226.821M117.233 226.544C 117.325 226.624 118.21 226.796 119.2 226.927C 120.402 227.086 120.734 227.047 120.2 226.81C 119.436 226.472 116.886 226.243 117.233 226.544M225.738 227.506C 225.484 227.668 226.142 227.8 227.2 227.8C 228.258 227.8 228.916 227.668 228.662 227.506C 228.408 227.344 227.75 227.212 227.2 227.212C 226.65 227.212 225.992 227.344 225.738 227.506M184.8 229C 185.546 229.77 186.247 230.4 186.357 230.4C 186.467 230.4 185.946 229.77 185.2 229C 184.454 228.23 183.753 227.6 183.643 227.6C 183.533 227.6 184.054 228.23 184.8 229M221.46 230.468L219 232.935L221.6 230.588C 223.03 229.297 224.275 228.187 224.367 228.12C 224.458 228.054 224.395 228 224.227 228C 224.058 228 222.813 229.11 221.46 230.468M297.2 231.649C 295.806 232.871 295.805 232.872 297.088 232.019C 297.796 231.548 298.482 230.991 298.612 230.781C 298.997 230.157 298.677 230.354 297.2 231.649M233.301 233.8C 233.305 234.68 233.387 234.993 233.483 234.495C 233.579 233.998 233.575 233.278 233.475 232.895C 233.375 232.513 233.296 232.92 233.301 233.8M88.06 234.003C 87.147 234.664 86.4 235.303 86.4 235.423C 86.4 235.611 88.654 234.077 89.78 233.122C 90.727 232.319 89.556 232.918 88.06 234.003M139.055 235.941C 139.921 236.568 141.773 238.323 143.171 239.841C 144.568 241.358 145.337 242.046 144.878 241.369C 143.813 239.797 138.529 234.8 137.932 234.8C 137.684 234.8 138.189 235.313 139.055 235.941M250.8 237.8C 251.546 238.57 252.247 239.2 252.357 239.2C 252.467 239.2 251.946 238.57 251.2 237.8C 250.454 237.03 249.753 236.4 249.643 236.4C 249.533 236.4 250.054 237.03 250.8 237.8M274.8 236.8C 276.168 237.238 277.219 237.238 276.2 236.8C 275.76 236.611 275.04 236.462 274.6 236.468C 273.957 236.477 273.996 236.543 274.8 236.8M284.6 236.819C 284.042 237.071 284.285 237.107 285.4 236.938C 286.28 236.804 287.075 236.628 287.167 236.547C 287.51 236.244 285.368 236.471 284.6 236.819M347.951 237.313C 348.124 237.485 350.501 237.574 353.233 237.511L353.233 237.511L358.2 237.397L352.919 237.198C 350.014 237.089 347.779 237.141 347.951 237.313M175.638 238.1C 175.732 238.155 176.527 238.83 177.404 239.6L177.404 239.6L179 241L177.622 239.5C 176.863 238.675 176.068 238 175.855 238C 175.641 238 175.544 238.045 175.638 238.1M81.056 240.277C 80.267 241.09 79.707 241.84 79.811 241.944C 79.915 242.048 80.045 242.056 80.1 241.962C 80.155 241.868 80.82 241.118 81.578 240.296C 83.362 238.361 82.933 238.346 81.056 240.277M146.985 244.7C 147.602 245.635 148.183 246.4 148.276 246.4C 148.564 246.4 147.033 243.966 146.432 243.469C 146.12 243.211 146.368 243.765 146.985 244.7M76.323 247.3C 73.871 251.182 71.849 257.478 71.122 263.495L71.122 263.495L70.628 267.59L56.214 267.7L41.8 267.81L56.5 267.905L71.2 268L71.2 266.546C 71.2 261.906 73.753 252.619 76.267 248.117C 77.268 246.324 77.308 245.741 76.323 247.3M149.725 249.4C 150.252 250.5 151.006 252.259 151.4 253.309C 151.793 254.359 152.192 255.141 152.286 255.048C 152.526 254.808 150.1 249.075 149.37 248.159C 149.038 247.742 149.197 248.3 149.725 249.4M195.6 249.182C 195.93 249.405 196.545 249.591 196.967 249.594C 197.99 249.602 197.671 249.373 196.2 249.044C 195.324 248.848 195.162 248.885 195.6 249.182M213.2 249.2C 212.376 249.464 212.341 249.526 213 249.554C 213.44 249.573 214.07 249.413 214.4 249.2C 215.101 248.747 214.614 248.747 213.2 249.2M271.141 249.301C 271.343 249.503 271.933 249.601 272.454 249.519C 273.255 249.393 273.198 249.337 272.087 249.152C 271.293 249.021 270.919 249.079 271.141 249.301M288.6 249.2L287.4 249.505L288.476 249.553C 289.068 249.579 289.664 249.42 289.8 249.2C 289.936 248.98 289.992 248.821 289.924 248.847C 289.856 248.873 289.26 249.032 288.6 249.2M203.3 250.294C 204.345 250.376 206.055 250.376 207.1 250.294C 208.145 250.212 207.29 250.144 205.2 250.144C 203.11 250.144 202.255 250.212 203.3 250.294M278.5 250.294C 279.545 250.376 281.255 250.376 282.3 250.294C 283.345 250.212 282.49 250.144 280.4 250.144C 278.31 250.144 277.455 250.212 278.5 250.294M152.456 256.4C 152.456 256.73 152.611 257.36 152.8 257.8C 153.017 258.304 153.144 258.378 153.144 258C 153.144 257.67 152.989 257.04 152.8 256.6C 152.583 256.096 152.456 256.022 152.456 256.4M153.28 259.8C 153.28 260.24 153.424 261.05 153.6 261.6C 153.854 262.392 153.92 262.433 153.92 261.8C 153.92 261.36 153.776 260.55 153.6 260C 153.346 259.208 153.28 259.167 153.28 259.8M154.102 267.2C 154.231 267.677 155.038 267.805 158.032 267.826L158.032 267.826L161.8 267.852L158.213 267.709C 156.019 267.622 154.493 267.379 154.283 267.083C 154.038 266.74 153.986 266.773 154.102 267.2M35.8 268.4L34.6 268.705L36 268.713C 36.77 268.717 37.85 268.576 38.4 268.4C 39.799 267.952 37.561 267.952 35.8 268.4M163.2 268.4C 163.75 268.576 164.65 268.717 165.2 268.713C 166.098 268.706 166.078 268.674 165 268.4C 163.308 267.969 161.856 267.969 163.2 268.4M29.8 269.946C 26.578 271.084 23.057 272.749 23.8 272.783C 24.02 272.794 24.92 272.452 25.8 272.025C 27.494 271.201 30.87 269.951 33.2 269.283C 34.015 269.049 34.266 268.868 33.8 268.849C 33.36 268.831 31.56 269.324 29.8 269.946M169.985 270.014C 171.186 270.446 172.266 270.787 172.385 270.77C 172.898 270.7 169.323 269.258 168.6 269.244C 168.16 269.236 168.783 269.582 169.985 270.014M172.833 270.939C 173.364 271.383 178.784 273.899 178.613 273.622C 178.393 273.266 173.452 270.8 172.959 270.8C 172.798 270.8 172.742 270.863 172.833 270.939M187.2 280.6C 188.617 282.03 189.867 283.2 189.977 283.2C 190.087 283.2 189.017 282.03 187.6 280.6C 186.183 279.17 184.933 278 184.823 278C 184.713 278 185.783 279.17 187.2 280.6M190.74 284.716C 191.233 285.409 191.844 286.104 192.097 286.26C 192.35 286.417 192.154 285.977 191.66 285.284C 191.167 284.591 190.556 283.896 190.303 283.74C 190.05 283.583 190.246 284.023 190.74 284.716M193.56 288.6C 194.234 289.905 194.788 290.628 194.785 290.2C 194.783 289.98 194.414 289.35 193.964 288.8C 193.421 288.136 193.285 288.069 193.56 288.6M195.478 292.195C 195.844 292.962 196.214 293.519 196.301 293.432C 196.484 293.249 195.27 290.8 194.996 290.8C 194.895 290.8 195.112 291.428 195.478 292.195M198.262 299.2C 198.398 299.97 198.662 300.87 198.848 301.2C 199.052 301.561 199.088 301.243 198.938 300.4C 198.802 299.63 198.538 298.73 198.352 298.4C 198.148 298.039 198.112 298.357 198.262 299.2" stroke="none" fill="#DBD7DC" fill-rule="nonzero" />
            <path d="M300.8 188.6C 301.546 189.37 302.247 190 302.357 190C 302.467 190 301.946 189.37 301.2 188.6C 300.454 187.83 299.753 187.2 299.643 187.2C 299.533 187.2 300.054 187.83 300.8 188.6zM176.093 208.8C 176.093 209.57 176.175 209.885 176.276 209.5C 176.376 209.115 176.376 208.485 176.276 208.1C 176.175 207.715 176.093 208.03 176.093 208.8zM106.4 227.2C 105.576 227.464 105.541 227.526 106.2 227.554C 106.64 227.573 107.27 227.413 107.6 227.2C 108.301 226.747 107.814 226.747 106.4 227.2zM136.367 234.545C 136.9 235.201 138.4 236.193 138.4 235.889C 138.4 235.813 137.815 235.322 137.1 234.799C 136.296 234.21 136.016 234.113 136.367 234.545zM83.186 239.1L81 241.4L83.3 239.214C 84.565 238.011 85.6 236.976 85.6 236.914C 85.6 236.617 85.218 236.963 83.186 239.1zM140.4 237.725C 140.4 237.794 140.985 238.379 141.7 239.025L141.7 239.025L143 240.2L141.825 238.9C 140.73 237.688 140.4 237.416 140.4 237.725zM93.4 240.241C 91.47 240.52 85.107 242.058 84.425 242.41C 81.777 243.777 79.365 244.645 79.15 244.307C 78.992 244.059 78.799 244.077 78.626 244.357C 78.476 244.601 78.588 244.803 78.876 244.806C 79.261 244.811 79.241 244.925 78.8 245.237C 77.99 245.809 78.584 245.591 81.2 244.354C 87.233 241.5 91.551 240.6 99.2 240.6C 105.436 240.6 105.845 240.662 111.8 242.51C 118.677 244.643 126.006 249.588 130.534 255.15C 131.138 255.893 131.713 256.421 131.81 256.323C 132.319 255.814 122.847 246.8 121.804 246.8C 121.661 246.8 120.759 246.26 119.8 245.6C 118.841 244.94 117.951 244.4 117.824 244.4C 117.696 244.4 116.738 244.022 115.696 243.56C 114.653 243.098 113.44 242.562 113 242.369C 109.183 240.696 98.375 239.522 93.4 240.241zM135.515 262.823C 136.552 264.926 137.457 266.51 137.527 266.343C 137.687 265.959 135.378 261.293 134.38 259.983C 133.968 259.442 134.479 260.72 135.515 262.823zM137.606 267.233C 137.631 267.951 139.16 272.019 139.172 271.4C 139.189 270.524 138.311 267.778 137.874 267.341C 137.723 267.19 137.603 267.142 137.606 267.233zM153.961 268.123C 154.14 268.3 155.256 268.388 156.443 268.317L156.443 268.317L158.6 268.189L156.118 267.994C 154.754 267.887 153.783 267.945 153.961 268.123zM139.45 274.2C 140.211 281.493 141.066 282.416 146.6 281.916C 147.819 281.806 147.416 281.691 144.907 281.434C 141.029 281.038 140.861 280.887 140.331 277.32C 139.788 273.661 139.164 271.449 139.45 274.2zM149.8 282.4C 151.676 282.877 152.739 282.877 152 282.4C 151.67 282.187 150.77 282.031 150 282.053L150 282.053L148.6 282.095L149.8 282.4zM153.6 283.2C 154.968 283.638 156.019 283.638 155 283.2C 154.56 283.011 153.84 282.862 153.4 282.868C 152.757 282.877 152.796 282.943 153.6 283.2zM156.4 284C 156.73 284.213 157.27 284.388 157.6 284.388C 158.133 284.388 158.133 284.345 157.6 284C 157.27 283.787 156.73 283.612 156.4 283.612C 155.867 283.612 155.867 283.655 156.4 284zM158.6 284.8C 158.736 285.02 159.039 285.2 159.274 285.2C 160.351 285.2 166.874 289.012 170.152 291.557C 172.281 293.209 176.691 298.091 178.503 300.8C 180.804 304.241 181.759 305.346 180.404 303C 176.394 296.059 169.617 289.764 162.106 286.005C 158.76 284.33 158.188 284.134 158.6 284.8zM181.219 304.846C 181.208 304.981 181.745 306.241 182.411 307.646C 183.078 309.051 183.504 309.75 183.36 309.2C 183.084 308.15 181.251 304.422 181.219 304.846zM184.456 313C 184.456 313.44 184.611 314.16 184.8 314.6L184.8 314.6L185.144 315.4L185.144 314.6C 185.144 314.16 184.989 313.44 184.8 313L184.8 313L184.456 312.2L184.456 313zM185.263 316.2C 185.254 316.64 185.395 317.72 185.577 318.6L185.577 318.6L185.908 320.2L185.914 318.8C 185.917 318.03 185.776 316.95 185.6 316.4C 185.341 315.591 185.277 315.553 185.263 316.2M186.151 325.2C 186.151 327.73 186.216 328.765 186.296 327.5C 186.375 326.235 186.375 324.165 186.296 322.9C 186.216 321.635 186.151 322.67 186.151 325.2M185.4 332.8C 185.245 333.928 185.208 334.941 185.318 335.051C 185.428 335.161 185.645 334.328 185.8 333.2C 185.955 332.072 185.992 331.059 185.882 330.949C 185.772 330.839 185.555 331.672 185.4 332.8M183.957 338.479C 182.776 342.171 182.624 342.832 183.148 342C 183.726 341.083 185.311 335.978 185.088 335.755C 184.98 335.646 184.471 336.872 183.957 338.479M189.483 340.199C 188.668 340.969 188 341.786 188 342.015C 188 342.434 189.177 341.376 190.574 339.7C 191.68 338.373 191.173 338.605 189.483 340.199M185.4 344.4C 185.536 344.62 185.356 344.8 185 344.8C 184.644 344.8 184.462 344.976 184.595 345.192C 184.747 345.439 185.127 345.403 185.619 345.096C 186.559 344.508 186.632 344 185.776 344C 185.433 344 185.264 344.18 185.4 344.4M180.39 347.026C 179.604 349.095 180.123 349.364 181.878 347.798C 182.547 347.201 182.717 346.895 182.3 347.041C 181.915 347.176 181.6 347.446 181.6 347.643C 181.6 347.839 181.4 348 181.157 348C 180.883 348 180.81 347.616 180.964 347C 181.293 345.692 180.89 345.71 180.39 347.026" stroke="none" fill="#BCBCBC" fill-rule="nonzero" />
		</g>
	</g>
</g>
</svg>